<?xml version="1.0" encoding="UTF-8" standalone="no"?>
<!DOCTYPE svg PUBLIC "-//W3C//DTD SVG 1.1//EN" "http://www.w3.org/Graphics/SVG/1.1/DTD/svg11.dtd">
<svg width="100%" height="100%" viewBox="0 0 417 326" version="1.1" xmlns="http://www.w3.org/2000/svg" xmlns:xlink="http://www.w3.org/1999/xlink" xml:space="preserve" xmlns:serif="http://www.serif.com/" style="fill-rule:evenodd;clip-rule:evenodd;stroke-linecap:square;stroke-miterlimit:1.5;">
    <g transform="matrix(1,0,0,1,-179.488,-124.717)">
        <g transform="matrix(0.190503,0,0,0.190503,90.1046,102.437)">
            <g transform="matrix(2.42523,0,0,2.42523,257.172,111.156)">
                <rect x="131.821" y="78.063" width="87.272" height="87.272" style="fill:rgb(255,158,0);fill-opacity:0.69;"/>
            </g>
        </g>
        <g transform="matrix(0.190503,0,0,0.190503,90.1046,102.437)">
            <g transform="matrix(2.42523,0,0,2.42523,257.172,373.619)">
                <rect x="131.821" y="78.063" width="87.272" height="87.272" style="fill:rgb(255,158,0);fill-opacity:0.69;"/>
            </g>
        </g>
        <g transform="matrix(0.190503,0,0,0.190503,90.1046,102.437)">
            <g transform="matrix(2.42523,0,0,2.42523,257.172,636.082)">
                <rect x="131.821" y="78.063" width="87.272" height="87.272" style="fill:rgb(255,158,0);fill-opacity:0.69;"/>
            </g>
        </g>
        <g transform="matrix(0.190503,0,0,0.190503,90.1046,102.437)">
            <g transform="matrix(2.42523,0,0,2.42523,257.172,898.545)">
                <rect x="131.821" y="78.063" width="87.272" height="87.272" style="fill:rgb(255,158,0);fill-opacity:0.69;"/>
            </g>
        </g>
        <g transform="matrix(0.190503,0,0,0.190503,90.1046,102.437)">
            <g transform="matrix(2.42523,0,0,2.42523,257.172,1161.01)">
                <rect x="131.821" y="78.063" width="87.272" height="87.272" style="fill:rgb(255,158,0);fill-opacity:0.69;"/>
            </g>
        </g>
        <g transform="matrix(0.190503,0,0,0.190503,90.1046,102.437)">
            <g transform="matrix(2.42523,0,0,2.42523,257.172,1423.47)">
                <rect x="131.821" y="78.063" width="87.272" height="87.272" style="fill:rgb(255,158,0);fill-opacity:0.69;"/>
            </g>
        </g>
        <g transform="matrix(0.190503,0,0,0.190503,90.1046,102.437)">
            <g transform="matrix(2.42523,0,0,2.42523,519.635,111.156)">
                <rect x="131.821" y="78.063" width="87.272" height="87.272" style="fill:rgb(255,158,0);fill-opacity:0.69;"/>
            </g>
        </g>
        <g transform="matrix(0.190503,0,0,0.190503,90.1046,102.437)">
            <g transform="matrix(2.42523,0,0,2.42523,519.635,373.619)">
                <rect x="131.821" y="78.063" width="87.272" height="87.272" style="fill:rgb(255,158,0);fill-opacity:0.69;"/>
            </g>
        </g>
        <g transform="matrix(0.190503,0,0,0.190503,90.1046,102.437)">
            <g transform="matrix(2.42523,0,0,2.42523,519.635,636.082)">
                <rect x="131.821" y="78.063" width="87.272" height="87.272" style="fill:rgb(255,158,0);fill-opacity:0.69;"/>
            </g>
        </g>
        <g transform="matrix(0.190503,0,0,0.190503,90.1046,102.437)">
            <g transform="matrix(2.42523,0,0,2.42523,519.635,898.545)">
                <rect x="131.821" y="78.063" width="87.272" height="87.272" style="fill:rgb(255,158,0);fill-opacity:0.69;"/>
            </g>
        </g>
        <g transform="matrix(0.190503,0,0,0.190503,90.1046,102.437)">
            <g transform="matrix(2.42523,0,0,2.42523,519.635,1161.01)">
                <rect x="131.821" y="78.063" width="87.272" height="87.272" style="fill:rgb(255,158,0);fill-opacity:0.69;"/>
            </g>
        </g>
        <g transform="matrix(0.190503,0,0,0.190503,90.1046,102.437)">
            <g transform="matrix(2.42523,0,0,2.42523,519.635,1423.47)">
                <rect x="131.821" y="78.063" width="87.272" height="87.272" style="fill:rgb(255,158,0);fill-opacity:0.69;"/>
            </g>
        </g>
        <g transform="matrix(0.190503,0,0,0.190503,90.1046,102.437)">
            <g transform="matrix(2.42523,0,0,2.42523,782.098,111.156)">
                <rect x="131.821" y="78.063" width="87.272" height="87.272" style="fill:rgb(255,158,0);fill-opacity:0.69;"/>
            </g>
        </g>
        <g transform="matrix(0.190503,0,0,0.190503,90.1046,102.437)">
            <g transform="matrix(2.42523,0,0,2.42523,782.098,373.619)">
                <rect x="131.821" y="78.063" width="87.272" height="87.272" style="fill:rgb(255,158,0);fill-opacity:0.69;"/>
            </g>
        </g>
        <g transform="matrix(0.190503,0,0,0.190503,90.1046,102.437)">
            <g transform="matrix(2.42523,0,0,2.42523,782.098,636.082)">
                <rect x="131.821" y="78.063" width="87.272" height="87.272" style="fill:rgb(255,158,0);fill-opacity:0.69;"/>
            </g>
        </g>
        <g transform="matrix(0.190503,0,0,0.190503,90.1046,102.437)">
            <g transform="matrix(2.42523,0,0,2.42523,782.098,898.545)">
                <rect x="131.821" y="78.063" width="87.272" height="87.272" style="fill:rgb(255,158,0);fill-opacity:0.69;"/>
            </g>
        </g>
        <g transform="matrix(0.190503,0,0,0.190503,90.1046,102.437)">
            <g transform="matrix(2.42523,0,0,2.42523,782.098,1161.01)">
                <rect x="131.821" y="78.063" width="87.272" height="87.272" style="fill:rgb(255,158,0);fill-opacity:0.69;"/>
            </g>
        </g>
        <g transform="matrix(0.190503,0,0,0.190503,90.1046,102.437)">
            <g transform="matrix(2.42523,0,0,2.42523,782.098,1423.47)">
                <rect x="131.821" y="78.063" width="87.272" height="87.272" style="fill:rgb(255,158,0);fill-opacity:0.69;"/>
            </g>
        </g>
        <g transform="matrix(0.190503,0,0,0.190503,90.1046,102.437)">
            <g transform="matrix(2.42523,0,0,2.42523,1044.56,111.156)">
                <rect x="131.821" y="78.063" width="87.272" height="87.272" style="fill:rgb(255,158,0);fill-opacity:0.69;"/>
            </g>
        </g>
        <g transform="matrix(0.190503,0,0,0.190503,90.1046,102.437)">
            <g transform="matrix(2.42523,0,0,2.42523,1044.56,373.619)">
                <rect x="131.821" y="78.063" width="87.272" height="87.272" style="fill:rgb(255,158,0);fill-opacity:0.69;"/>
            </g>
        </g>
        <g transform="matrix(0.190503,0,0,0.190503,90.1046,102.437)">
            <g transform="matrix(2.42523,0,0,2.42523,1044.56,636.082)">
                <rect x="131.821" y="78.063" width="87.272" height="87.272" style="fill:rgb(255,158,0);fill-opacity:0.69;"/>
            </g>
        </g>
        <g transform="matrix(0.190503,0,0,0.190503,90.1046,102.437)">
            <g transform="matrix(2.42523,0,0,2.42523,1044.56,898.545)">
                <rect x="131.821" y="78.063" width="87.272" height="87.272" style="fill:rgb(255,158,0);fill-opacity:0.69;"/>
            </g>
        </g>
        <g transform="matrix(0.190503,0,0,0.190503,90.1046,102.437)">
            <g transform="matrix(2.42523,0,0,2.42523,1044.56,1161.01)">
                <rect x="131.821" y="78.063" width="87.272" height="87.272" style="fill:rgb(255,158,0);fill-opacity:0.69;"/>
            </g>
        </g>
        <g transform="matrix(0.190503,0,0,0.190503,90.1046,102.437)">
            <g transform="matrix(2.42523,0,0,2.42523,1044.56,1423.47)">
                <rect x="131.821" y="78.063" width="87.272" height="87.272" style="fill:rgb(255,158,0);fill-opacity:0.69;"/>
            </g>
        </g>
        <g transform="matrix(0.190503,0,0,0.190503,90.1046,102.437)">
            <g transform="matrix(2.42523,0,0,2.42523,1307.02,111.156)">
                <rect x="131.821" y="78.063" width="87.272" height="87.272" style="fill:rgb(255,158,0);fill-opacity:0.69;"/>
            </g>
        </g>
        <g transform="matrix(0.190503,0,0,0.190503,90.1046,102.437)">
            <g transform="matrix(2.42523,0,0,2.42523,1307.02,373.619)">
                <rect x="131.821" y="78.063" width="87.272" height="87.272" style="fill:rgb(255,158,0);fill-opacity:0.69;"/>
            </g>
        </g>
        <g transform="matrix(0.190503,0,0,0.190503,90.1046,102.437)">
            <g transform="matrix(2.42523,0,0,2.42523,1307.02,636.082)">
                <rect x="131.821" y="78.063" width="87.272" height="87.272" style="fill:rgb(255,158,0);fill-opacity:0.69;"/>
            </g>
        </g>
        <g transform="matrix(0.190503,0,0,0.190503,90.1046,102.437)">
            <g transform="matrix(2.42523,0,0,2.42523,1307.02,898.545)">
                <rect x="131.821" y="78.063" width="87.272" height="87.272" style="fill:rgb(255,158,0);fill-opacity:0.69;"/>
            </g>
        </g>
        <g transform="matrix(0.190503,0,0,0.190503,90.1046,102.437)">
            <g transform="matrix(2.42523,0,0,2.42523,1307.02,1161.01)">
                <rect x="131.821" y="78.063" width="87.272" height="87.272" style="fill:rgb(255,158,0);fill-opacity:0.69;"/>
            </g>
        </g>
        <g transform="matrix(0.190503,0,0,0.190503,90.1046,102.437)">
            <g transform="matrix(2.42523,0,0,2.42523,1307.02,1423.47)">
                <rect x="131.821" y="78.063" width="87.272" height="87.272" style="fill:rgb(255,158,0);fill-opacity:0.69;"/>
            </g>
        </g>
        <g transform="matrix(0.190503,0,0,0.190503,90.1046,102.437)">
            <g transform="matrix(2.42523,0,0,2.42523,1569.49,111.156)">
                <rect x="131.821" y="78.063" width="87.272" height="87.272" style="fill:rgb(255,158,0);fill-opacity:0.69;"/>
            </g>
        </g>
        <g transform="matrix(0.190503,0,0,0.190503,90.1046,102.437)">
            <g transform="matrix(2.42523,0,0,2.42523,1569.49,373.619)">
                <rect x="131.821" y="78.063" width="87.272" height="87.272" style="fill:rgb(255,158,0);fill-opacity:0.69;"/>
            </g>
        </g>
        <g transform="matrix(0.190503,0,0,0.190503,90.1046,102.437)">
            <g transform="matrix(2.42523,0,0,2.42523,1569.49,636.082)">
                <rect x="131.821" y="78.063" width="87.272" height="87.272" style="fill:rgb(255,158,0);fill-opacity:0.69;"/>
            </g>
        </g>
        <g transform="matrix(0.190503,0,0,0.190503,90.1046,102.437)">
            <g transform="matrix(2.42523,0,0,2.42523,1569.49,898.545)">
                <rect x="131.821" y="78.063" width="87.272" height="87.272" style="fill:rgb(255,158,0);fill-opacity:0.69;"/>
            </g>
        </g>
        <g transform="matrix(0.190503,0,0,0.190503,90.1046,102.437)">
            <g transform="matrix(2.42523,0,0,2.42523,1569.49,1161.01)">
                <rect x="131.821" y="78.063" width="87.272" height="87.272" style="fill:rgb(255,158,0);fill-opacity:0.69;"/>
            </g>
        </g>
        <g transform="matrix(0.190503,0,0,0.190503,90.1046,102.437)">
            <g transform="matrix(2.42523,0,0,2.42523,1569.49,1423.47)">
                <rect x="131.821" y="78.063" width="87.272" height="87.272" style="fill:rgb(255,158,0);fill-opacity:0.69;"/>
            </g>
        </g>
        <g transform="matrix(0.190503,0,0,0.190503,90.1046,102.437)">
            <g transform="matrix(2.42523,0,0,2.42523,1831.95,111.156)">
                <rect x="131.821" y="78.063" width="87.272" height="87.272" style="fill:rgb(255,158,0);fill-opacity:0.69;"/>
            </g>
        </g>
        <g transform="matrix(0.190503,0,0,0.190503,90.1046,102.437)">
            <g transform="matrix(2.42523,0,0,2.42523,1831.95,373.619)">
                <rect x="131.821" y="78.063" width="87.272" height="87.272" style="fill:rgb(255,158,0);fill-opacity:0.69;"/>
            </g>
        </g>
        <g transform="matrix(0.190503,0,0,0.190503,90.1046,102.437)">
            <g transform="matrix(2.42523,0,0,2.42523,1831.95,636.082)">
                <rect x="131.821" y="78.063" width="87.272" height="87.272" style="fill:rgb(255,158,0);fill-opacity:0.69;"/>
            </g>
        </g>
        <g transform="matrix(0.190503,0,0,0.190503,90.1046,102.437)">
            <g transform="matrix(2.42523,0,0,2.42523,1831.95,898.545)">
                <rect x="131.821" y="78.063" width="87.272" height="87.272" style="fill:rgb(255,158,0);fill-opacity:0.69;"/>
            </g>
        </g>
        <g transform="matrix(0.190503,0,0,0.190503,90.1046,102.437)">
            <g transform="matrix(2.42523,0,0,2.42523,1831.95,1161.01)">
                <rect x="131.821" y="78.063" width="87.272" height="87.272" style="fill:rgb(255,158,0);fill-opacity:0.69;"/>
            </g>
        </g>
        <g transform="matrix(0.190503,0,0,0.190503,90.1046,102.437)">
            <g transform="matrix(2.42523,0,0,2.42523,1831.95,1423.47)">
                <rect x="131.821" y="78.063" width="87.272" height="87.272" style="fill:rgb(255,158,0);fill-opacity:0.69;"/>
            </g>
        </g>
        <g transform="matrix(0.190503,0,0,0.190503,90.1046,102.437)">
            <g transform="matrix(2.42523,0,0,2.42523,2094.41,111.156)">
                <rect x="131.821" y="78.063" width="87.272" height="87.272" style="fill:rgb(255,158,0);fill-opacity:0.69;"/>
            </g>
        </g>
        <g transform="matrix(0.190503,0,0,0.190503,90.1046,102.437)">
            <g transform="matrix(2.42523,0,0,2.42523,2094.41,373.619)">
                <rect x="131.821" y="78.063" width="87.272" height="87.272" style="fill:rgb(255,158,0);fill-opacity:0.69;"/>
            </g>
        </g>
        <g transform="matrix(0.190503,0,0,0.190503,90.1046,102.437)">
            <g transform="matrix(2.42523,0,0,2.42523,2094.41,636.082)">
                <rect x="131.821" y="78.063" width="87.272" height="87.272" style="fill:rgb(255,158,0);fill-opacity:0.69;"/>
            </g>
        </g>
        <g transform="matrix(0.190503,0,0,0.190503,90.1046,102.437)">
            <g transform="matrix(2.42523,0,0,2.42523,2094.41,898.545)">
                <rect x="131.821" y="78.063" width="87.272" height="87.272" style="fill:rgb(255,158,0);fill-opacity:0.69;"/>
            </g>
        </g>
        <g transform="matrix(0.190503,0,0,0.190503,90.1046,102.437)">
            <g transform="matrix(2.42523,0,0,2.42523,2094.41,1161.01)">
                <rect x="131.821" y="78.063" width="87.272" height="87.272" style="fill:rgb(255,158,0);fill-opacity:0.69;"/>
            </g>
        </g>
        <g transform="matrix(0.190503,0,0,0.190503,90.1046,102.437)">
            <g transform="matrix(2.42523,0,0,2.42523,2094.41,1423.47)">
                <rect x="131.821" y="78.063" width="87.272" height="87.272" style="fill:rgb(255,158,0);fill-opacity:0.69;"/>
            </g>
        </g>
        <g transform="matrix(0.190503,0,0,0.190503,90.1046,102.437)">
            <g transform="matrix(2.42523,0,0,2.42523,276.71,94.2239)">
                <rect x="131.821" y="78.063" width="87.272" height="87.272" style="fill:rgb(158,0,255);fill-opacity:0.54;"/>
            </g>
        </g>
        <g transform="matrix(0.190503,0,0,0.190503,90.1046,102.437)">
            <g transform="matrix(2.42523,0,0,2.42523,276.71,356.687)">
                <rect x="131.821" y="78.063" width="87.272" height="87.272" style="fill:rgb(158,0,255);fill-opacity:0.54;"/>
            </g>
        </g>
        <g transform="matrix(0.190503,0,0,0.190503,90.1046,102.437)">
            <g transform="matrix(2.42523,0,0,2.42523,276.71,619.15)">
                <rect x="131.821" y="78.063" width="87.272" height="87.272" style="fill:rgb(158,0,255);fill-opacity:0.54;"/>
            </g>
        </g>
        <g transform="matrix(0.190503,0,0,0.190503,90.1046,102.437)">
            <g transform="matrix(2.42523,0,0,2.42523,276.71,881.613)">
                <rect x="131.821" y="78.063" width="87.272" height="87.272" style="fill:rgb(158,0,255);fill-opacity:0.54;"/>
            </g>
        </g>
        <g transform="matrix(0.190503,0,0,0.190503,90.1046,102.437)">
            <g transform="matrix(2.42523,0,0,2.42523,276.71,1144.08)">
                <rect x="131.821" y="78.063" width="87.272" height="87.272" style="fill:rgb(158,0,255);fill-opacity:0.54;"/>
            </g>
        </g>
        <g transform="matrix(0.190503,0,0,0.190503,90.1046,102.437)">
            <g transform="matrix(2.42523,0,0,2.42523,276.71,1406.54)">
                <rect x="131.821" y="78.063" width="87.272" height="87.272" style="fill:rgb(158,0,255);fill-opacity:0.54;"/>
            </g>
        </g>
        <g transform="matrix(0.190503,0,0,0.190503,90.1046,102.437)">
            <g transform="matrix(2.42523,0,0,2.42523,539.172,94.2239)">
                <rect x="131.821" y="78.063" width="87.272" height="87.272" style="fill:rgb(158,0,255);fill-opacity:0.54;"/>
            </g>
        </g>
        <g transform="matrix(0.190503,0,0,0.190503,90.1046,102.437)">
            <g transform="matrix(2.42523,0,0,2.42523,539.172,356.687)">
                <rect x="131.821" y="78.063" width="87.272" height="87.272" style="fill:rgb(158,0,255);fill-opacity:0.54;"/>
            </g>
        </g>
        <g transform="matrix(0.190503,0,0,0.190503,90.1046,102.437)">
            <g transform="matrix(2.42523,0,0,2.42523,539.172,619.15)">
                <rect x="131.821" y="78.063" width="87.272" height="87.272" style="fill:rgb(158,0,255);fill-opacity:0.54;"/>
            </g>
        </g>
        <g transform="matrix(0.190503,0,0,0.190503,90.1046,102.437)">
            <g transform="matrix(2.42523,0,0,2.42523,539.172,881.613)">
                <rect x="131.821" y="78.063" width="87.272" height="87.272" style="fill:rgb(158,0,255);fill-opacity:0.54;"/>
            </g>
        </g>
        <g transform="matrix(0.190503,0,0,0.190503,90.1046,102.437)">
            <g transform="matrix(2.42523,0,0,2.42523,539.172,1144.08)">
                <rect x="131.821" y="78.063" width="87.272" height="87.272" style="fill:rgb(158,0,255);fill-opacity:0.54;"/>
            </g>
        </g>
        <g transform="matrix(0.190503,0,0,0.190503,90.1046,102.437)">
            <g transform="matrix(2.42523,0,0,2.42523,539.172,1406.54)">
                <rect x="131.821" y="78.063" width="87.272" height="87.272" style="fill:rgb(158,0,255);fill-opacity:0.54;"/>
            </g>
        </g>
        <g transform="matrix(0.190503,0,0,0.190503,90.1046,102.437)">
            <g transform="matrix(2.42523,0,0,2.42523,801.635,94.2239)">
                <rect x="131.821" y="78.063" width="87.272" height="87.272" style="fill:rgb(158,0,255);fill-opacity:0.54;"/>
            </g>
        </g>
        <g transform="matrix(0.190503,0,0,0.190503,90.1046,102.437)">
            <g transform="matrix(2.42523,0,0,2.42523,801.635,356.687)">
                <rect x="131.821" y="78.063" width="87.272" height="87.272" style="fill:rgb(158,0,255);fill-opacity:0.54;"/>
            </g>
        </g>
        <g transform="matrix(0.190503,0,0,0.190503,90.1046,102.437)">
            <g transform="matrix(2.42523,0,0,2.42523,801.635,619.15)">
                <rect x="131.821" y="78.063" width="87.272" height="87.272" style="fill:rgb(158,0,255);fill-opacity:0.54;"/>
            </g>
        </g>
        <g transform="matrix(0.190503,0,0,0.190503,90.1046,102.437)">
            <g transform="matrix(2.42523,0,0,2.42523,801.635,881.613)">
                <rect x="131.821" y="78.063" width="87.272" height="87.272" style="fill:rgb(158,0,255);fill-opacity:0.54;"/>
            </g>
        </g>
        <g transform="matrix(0.190503,0,0,0.190503,90.1046,102.437)">
            <g transform="matrix(2.42523,0,0,2.42523,801.635,1144.08)">
                <rect x="131.821" y="78.063" width="87.272" height="87.272" style="fill:rgb(158,0,255);fill-opacity:0.54;"/>
            </g>
        </g>
        <g transform="matrix(0.190503,0,0,0.190503,90.1046,102.437)">
            <g transform="matrix(2.42523,0,0,2.42523,801.635,1406.54)">
                <rect x="131.821" y="78.063" width="87.272" height="87.272" style="fill:rgb(158,0,255);fill-opacity:0.54;"/>
            </g>
        </g>
        <g transform="matrix(0.190503,0,0,0.190503,90.1046,102.437)">
            <g transform="matrix(2.42523,0,0,2.42523,1064.1,94.2239)">
                <rect x="131.821" y="78.063" width="87.272" height="87.272" style="fill:rgb(158,0,255);fill-opacity:0.54;"/>
            </g>
        </g>
        <g transform="matrix(0.190503,0,0,0.190503,90.1046,102.437)">
            <g transform="matrix(2.42523,0,0,2.42523,1064.1,356.687)">
                <rect x="131.821" y="78.063" width="87.272" height="87.272" style="fill:rgb(158,0,255);fill-opacity:0.54;"/>
            </g>
        </g>
        <g transform="matrix(0.190503,0,0,0.190503,90.1046,102.437)">
            <g transform="matrix(2.42523,0,0,2.42523,1064.1,619.15)">
                <rect x="131.821" y="78.063" width="87.272" height="87.272" style="fill:rgb(158,0,255);fill-opacity:0.54;"/>
            </g>
        </g>
        <g transform="matrix(0.190503,0,0,0.190503,90.1046,102.437)">
            <g transform="matrix(2.42523,0,0,2.42523,1064.1,881.613)">
                <rect x="131.821" y="78.063" width="87.272" height="87.272" style="fill:rgb(158,0,255);fill-opacity:0.54;"/>
            </g>
        </g>
        <g transform="matrix(0.190503,0,0,0.190503,90.1046,102.437)">
            <g transform="matrix(2.42523,0,0,2.42523,1064.1,1144.08)">
                <rect x="131.821" y="78.063" width="87.272" height="87.272" style="fill:rgb(158,0,255);fill-opacity:0.54;"/>
            </g>
        </g>
        <g transform="matrix(0.190503,0,0,0.190503,90.1046,102.437)">
            <g transform="matrix(2.42523,0,0,2.42523,1064.1,1406.54)">
                <rect x="131.821" y="78.063" width="87.272" height="87.272" style="fill:rgb(158,0,255);fill-opacity:0.54;"/>
            </g>
        </g>
        <g transform="matrix(0.190503,0,0,0.190503,90.1046,102.437)">
            <g transform="matrix(2.42523,0,0,2.42523,1326.56,94.2239)">
                <rect x="131.821" y="78.063" width="87.272" height="87.272" style="fill:rgb(158,0,255);fill-opacity:0.54;"/>
            </g>
        </g>
        <g transform="matrix(0.190503,0,0,0.190503,90.1046,102.437)">
            <g transform="matrix(2.42523,0,0,2.42523,1326.56,356.687)">
                <rect x="131.821" y="78.063" width="87.272" height="87.272" style="fill:rgb(158,0,255);fill-opacity:0.54;"/>
            </g>
        </g>
        <g transform="matrix(0.190503,0,0,0.190503,90.1046,102.437)">
            <g transform="matrix(2.42523,0,0,2.42523,1326.56,619.15)">
                <rect x="131.821" y="78.063" width="87.272" height="87.272" style="fill:rgb(158,0,255);fill-opacity:0.54;"/>
            </g>
        </g>
        <g transform="matrix(0.190503,0,0,0.190503,90.1046,102.437)">
            <g transform="matrix(2.42523,0,0,2.42523,1326.56,881.613)">
                <rect x="131.821" y="78.063" width="87.272" height="87.272" style="fill:rgb(158,0,255);fill-opacity:0.54;"/>
            </g>
        </g>
        <g transform="matrix(0.190503,0,0,0.190503,90.1046,102.437)">
            <g transform="matrix(2.42523,0,0,2.42523,1326.56,1144.08)">
                <rect x="131.821" y="78.063" width="87.272" height="87.272" style="fill:rgb(158,0,255);fill-opacity:0.54;"/>
            </g>
        </g>
        <g transform="matrix(0.190503,0,0,0.190503,90.1046,102.437)">
            <g transform="matrix(2.42523,0,0,2.42523,1326.56,1406.54)">
                <rect x="131.821" y="78.063" width="87.272" height="87.272" style="fill:rgb(158,0,255);fill-opacity:0.54;"/>
            </g>
        </g>
        <g transform="matrix(0.190503,0,0,0.190503,90.1046,102.437)">
            <g transform="matrix(2.42523,0,0,2.42523,1589.02,94.2239)">
                <rect x="131.821" y="78.063" width="87.272" height="87.272" style="fill:rgb(158,0,255);fill-opacity:0.54;"/>
            </g>
        </g>
        <g transform="matrix(0.190503,0,0,0.190503,90.1046,102.437)">
            <g transform="matrix(2.42523,0,0,2.42523,1589.02,356.687)">
                <rect x="131.821" y="78.063" width="87.272" height="87.272" style="fill:rgb(158,0,255);fill-opacity:0.54;"/>
            </g>
        </g>
        <g transform="matrix(0.190503,0,0,0.190503,90.1046,102.437)">
            <g transform="matrix(2.42523,0,0,2.42523,1589.02,619.15)">
                <rect x="131.821" y="78.063" width="87.272" height="87.272" style="fill:rgb(158,0,255);fill-opacity:0.54;"/>
            </g>
        </g>
        <g transform="matrix(0.190503,0,0,0.190503,90.1046,102.437)">
            <g transform="matrix(2.42523,0,0,2.42523,1589.02,881.613)">
                <rect x="131.821" y="78.063" width="87.272" height="87.272" style="fill:rgb(158,0,255);fill-opacity:0.54;"/>
            </g>
        </g>
        <g transform="matrix(0.190503,0,0,0.190503,90.1046,102.437)">
            <g transform="matrix(2.42523,0,0,2.42523,1589.02,1144.08)">
                <rect x="131.821" y="78.063" width="87.272" height="87.272" style="fill:rgb(158,0,255);fill-opacity:0.54;"/>
            </g>
        </g>
        <g transform="matrix(0.190503,0,0,0.190503,90.1046,102.437)">
            <g transform="matrix(2.42523,0,0,2.42523,1589.02,1406.54)">
                <rect x="131.821" y="78.063" width="87.272" height="87.272" style="fill:rgb(158,0,255);fill-opacity:0.54;"/>
            </g>
        </g>
        <g transform="matrix(0.190503,0,0,0.190503,90.1046,102.437)">
            <g transform="matrix(2.42523,0,0,2.42523,1851.49,94.2239)">
                <rect x="131.821" y="78.063" width="87.272" height="87.272" style="fill:rgb(158,0,255);fill-opacity:0.54;"/>
            </g>
        </g>
        <g transform="matrix(0.190503,0,0,0.190503,90.1046,102.437)">
            <g transform="matrix(2.42523,0,0,2.42523,1851.49,356.687)">
                <rect x="131.821" y="78.063" width="87.272" height="87.272" style="fill:rgb(158,0,255);fill-opacity:0.54;"/>
            </g>
        </g>
        <g transform="matrix(0.190503,0,0,0.190503,90.1046,102.437)">
            <g transform="matrix(2.42523,0,0,2.42523,1851.49,619.15)">
                <rect x="131.821" y="78.063" width="87.272" height="87.272" style="fill:rgb(158,0,255);fill-opacity:0.54;"/>
            </g>
        </g>
        <g transform="matrix(0.190503,0,0,0.190503,90.1046,102.437)">
            <g transform="matrix(2.42523,0,0,2.42523,1851.49,881.613)">
                <rect x="131.821" y="78.063" width="87.272" height="87.272" style="fill:rgb(158,0,255);fill-opacity:0.54;"/>
            </g>
        </g>
        <g transform="matrix(0.190503,0,0,0.190503,90.1046,102.437)">
            <g transform="matrix(2.42523,0,0,2.42523,1851.49,1144.08)">
                <rect x="131.821" y="78.063" width="87.272" height="87.272" style="fill:rgb(158,0,255);fill-opacity:0.54;"/>
            </g>
        </g>
        <g transform="matrix(0.190503,0,0,0.190503,90.1046,102.437)">
            <g transform="matrix(2.42523,0,0,2.42523,1851.49,1406.54)">
                <rect x="131.821" y="78.063" width="87.272" height="87.272" style="fill:rgb(158,0,255);fill-opacity:0.54;"/>
            </g>
        </g>
        <g transform="matrix(0.190503,0,0,0.190503,90.1046,102.437)">
            <g transform="matrix(2.42523,0,0,2.42523,2113.95,94.2239)">
                <rect x="131.821" y="78.063" width="87.272" height="87.272" style="fill:rgb(158,0,255);fill-opacity:0.54;"/>
            </g>
        </g>
        <g transform="matrix(0.190503,0,0,0.190503,90.1046,102.437)">
            <g transform="matrix(2.42523,0,0,2.42523,2113.95,356.687)">
                <rect x="131.821" y="78.063" width="87.272" height="87.272" style="fill:rgb(158,0,255);fill-opacity:0.54;"/>
            </g>
        </g>
        <g transform="matrix(0.190503,0,0,0.190503,90.1046,102.437)">
            <g transform="matrix(2.42523,0,0,2.42523,2113.95,619.15)">
                <rect x="131.821" y="78.063" width="87.272" height="87.272" style="fill:rgb(158,0,255);fill-opacity:0.54;"/>
            </g>
        </g>
        <g transform="matrix(0.190503,0,0,0.190503,90.1046,102.437)">
            <g transform="matrix(2.42523,0,0,2.42523,2113.95,881.613)">
                <rect x="131.821" y="78.063" width="87.272" height="87.272" style="fill:rgb(158,0,255);fill-opacity:0.54;"/>
            </g>
        </g>
        <g transform="matrix(0.190503,0,0,0.190503,90.1046,102.437)">
            <g transform="matrix(2.42523,0,0,2.42523,2113.95,1144.08)">
                <rect x="131.821" y="78.063" width="87.272" height="87.272" style="fill:rgb(158,0,255);fill-opacity:0.54;"/>
            </g>
        </g>
        <g transform="matrix(0.190503,0,0,0.190503,90.1046,102.437)">
            <g transform="matrix(2.42523,0,0,2.42523,2113.95,1406.54)">
                <rect x="131.821" y="78.063" width="87.272" height="87.272" style="fill:rgb(158,0,255);fill-opacity:0.54;"/>
            </g>
        </g>
        <g transform="matrix(0.190503,0,0,0.190503,90.1046,102.437)">
            <g transform="matrix(5.42642,0,0,5.24926,-516.802,-528.481)">
                <path d="M210,140L580,140" style="fill:none;stroke:rgb(255,158,0);stroke-opacity:0.62;stroke-width:4.26px;"/>
            </g>
        </g>
        <g transform="matrix(0.190503,0,0,0.190503,90.1046,102.437)">
            <g transform="matrix(5.42642,0,0,5.24926,-509.963,-537.719)">
                <path d="M210,140L580,140" style="fill:none;stroke:rgb(158,0,255);stroke-opacity:0.74;stroke-width:4.26px;"/>
            </g>
        </g>
        <g transform="matrix(0.190503,0,0,0.190503,90.1046,102.437)">
            <g transform="matrix(5.24926,0,0,5.24926,-472.982,-537.719)">
                <text x="209.047px" y="133.621px" style="font-family:'Montserrat-Thin', 'Montserrat';font-weight:250;font-size:12px;fill:rgb(158,0,255);fill-opacity:0.69;">V<tspan x="216.427px " y="133.621px ">o</tspan>lume</text>
            </g>
        </g>
        <g transform="matrix(0.190503,0,0,0.190503,90.1046,102.437)">
            <g transform="matrix(4.35707,0,0,4.23698,-154.728,-387.298)">
                <rect x="356.71" y="127.424" width="24.198" height="21.173" style="fill:rgb(255,158,0);fill-opacity:0.61;"/>
            </g>
        </g>
        <g transform="matrix(0.190503,0,0,0.190503,90.1046,102.437)">
            <g transform="matrix(4.35707,0,0,4.23698,-137.955,-398.949)">
                <rect x="356.71" y="127.424" width="24.198" height="21.173" style="fill:rgb(158,0,255);fill-opacity:0.77;"/>
            </g>
        </g>
        <g transform="matrix(0.190503,0,0,0.190503,90.1046,102.437)">
            <g transform="matrix(5.24926,0,0,5.24926,-457.586,-543.878)">
                <text x="176.447px" y="430.772px" style="font-family:'Montserrat-Thin', 'Montserrat';font-weight:250;font-size:12px;fill:rgb(158,0,255);fill-opacity:0.69;">c<tspan x="182.747px " y="430.772px ">3</tspan></text>
            </g>
        </g>
        <g transform="matrix(0.190503,0,0,0.190503,90.1046,102.437)">
            <g transform="matrix(5.24926,0,0,5.24926,-457.586,-808.528)">
                <text x="176.447px" y="430.772px" style="font-family:'Montserrat-Thin', 'Montserrat';font-weight:250;font-size:12px;fill:rgb(158,0,255);fill-opacity:0.69;">D<tspan x="186.239px " y="430.772px ">3</tspan></text>
            </g>
        </g>
        <g transform="matrix(0.190503,0,0,0.190503,90.1046,102.437)">
            <g transform="matrix(5.24926,0,0,5.24926,-457.586,-1073.18)">
                <text x="176.447px" y="430.772px" style="font-family:'Montserrat-Thin', 'Montserrat';font-weight:250;font-size:12px;fill:rgb(158,0,255);fill-opacity:0.69;">E<tspan x="184.223px " y="430.772px ">3</tspan></text>
            </g>
        </g>
        <g transform="matrix(0.190503,0,0,0.190503,90.1046,102.437)">
            <g transform="matrix(5.24926,0,0,5.24926,-457.586,-1337.83)">
                <text x="176.447px" y="430.772px" style="font-family:'Montserrat-Thin', 'Montserrat';font-weight:250;font-size:12px;fill:rgb(158,0,255);fill-opacity:0.69;">F3</text>
            </g>
        </g>
        <g transform="matrix(0.190503,0,0,0.190503,90.1046,102.437)">
            <g transform="matrix(5.24926,0,0,5.24926,-457.586,-1602.48)">
                <text x="176.447px" y="430.772px" style="font-family:'Montserrat-Thin', 'Montserrat';font-weight:250;font-size:12px;fill:rgb(158,0,255);fill-opacity:0.69;">G3</text>
            </g>
        </g>
        <g transform="matrix(0.190503,0,0,0.190503,90.1046,102.437)">
            <g transform="matrix(5.24926,0,0,5.24926,-457.586,-1867.13)">
                <text x="176.447px" y="430.772px" style="font-family:'Montserrat-Thin', 'Montserrat';font-weight:250;font-size:12px;fill:rgb(158,0,255);fill-opacity:0.69;">A<tspan x="184.523px " y="430.772px ">4</tspan></text>
            </g>
        </g>
    </g>
</svg>
