<?xml version="1.0" encoding="UTF-8" standalone="no"?>
<!DOCTYPE svg PUBLIC "-//W3C//DTD SVG 1.1//EN" "http://www.w3.org/Graphics/SVG/1.1/DTD/svg11.dtd">
<svg width="100%" height="100%" viewBox="0 0 304 296" version="1.1" xmlns="http://www.w3.org/2000/svg" xmlns:xlink="http://www.w3.org/1999/xlink" xml:space="preserve" xmlns:serif="http://www.serif.com/" style="fill-rule:evenodd;clip-rule:evenodd;stroke-linejoin:round;stroke-miterlimit:2;">
    <g transform="matrix(1,0,0,1,-9.65693,-13.723)">
        <g transform="matrix(0.181564,0,0,0.181564,-39.0217,-5.36441)">
            <rect x="268.107" y="163.914" width="272.935" height="272.935" style="fill:rgb(255,0,227);fill-opacity:0.45;"/>
        </g>
        <g transform="matrix(0.181564,0,0,0.181564,-39.0217,53.3395)">
            <rect x="268.107" y="163.914" width="272.935" height="272.935" style="fill:rgb(255,0,227);fill-opacity:0.45;"/>
        </g>
        <g transform="matrix(0.181564,0,0,0.181564,-39.0217,112.043)">
            <rect x="268.107" y="163.914" width="272.935" height="272.935" style="fill:rgb(255,0,227);fill-opacity:0.45;"/>
        </g>
        <g transform="matrix(0.181564,0,0,0.181564,-39.0217,170.747)">
            <rect x="268.107" y="163.914" width="272.935" height="272.935" style="fill:rgb(255,0,227);fill-opacity:0.45;"/>
        </g>
        <g transform="matrix(0.181564,0,0,0.181564,-39.0217,229.451)">
            <rect x="268.107" y="163.914" width="272.935" height="272.935" style="fill:rgb(255,0,227);fill-opacity:0.45;"/>
        </g>
        <g transform="matrix(0.181564,0,0,0.181564,22.7318,-5.36441)">
            <rect x="268.107" y="163.914" width="272.935" height="272.935" style="fill:rgb(255,0,227);fill-opacity:0.45;"/>
        </g>
        <g transform="matrix(0.181564,0,0,0.181564,22.7318,53.3395)">
            <rect x="268.107" y="163.914" width="272.935" height="272.935" style="fill:rgb(255,0,227);fill-opacity:0.45;"/>
        </g>
        <g transform="matrix(0.181564,0,0,0.181564,22.7318,112.043)">
            <rect x="268.107" y="163.914" width="272.935" height="272.935" style="fill:rgb(255,0,227);fill-opacity:0.45;"/>
        </g>
        <g transform="matrix(0.181564,0,0,0.181564,22.7318,170.747)">
            <rect x="268.107" y="163.914" width="272.935" height="272.935" style="fill:rgb(255,0,227);fill-opacity:0.45;"/>
        </g>
        <g transform="matrix(0.181564,0,0,0.181564,22.7318,229.451)">
            <rect x="268.107" y="163.914" width="272.935" height="272.935" style="fill:rgb(255,0,227);fill-opacity:0.45;"/>
        </g>
        <g transform="matrix(0.181564,0,0,0.181564,84.4853,-5.36441)">
            <rect x="268.107" y="163.914" width="272.935" height="272.935" style="fill:rgb(255,0,227);fill-opacity:0.45;"/>
        </g>
        <g transform="matrix(0.181564,0,0,0.181564,84.4853,53.3395)">
            <rect x="268.107" y="163.914" width="272.935" height="272.935" style="fill:rgb(255,0,227);fill-opacity:0.45;"/>
        </g>
        <g transform="matrix(0.181564,0,0,0.181564,84.4853,112.043)">
            <rect x="268.107" y="163.914" width="272.935" height="272.935" style="fill:rgb(255,0,227);fill-opacity:0.45;"/>
        </g>
        <g transform="matrix(0.181564,0,0,0.181564,84.4853,170.747)">
            <rect x="268.107" y="163.914" width="272.935" height="272.935" style="fill:rgb(255,0,227);fill-opacity:0.45;"/>
        </g>
        <g transform="matrix(0.181564,0,0,0.181564,84.4853,229.451)">
            <rect x="268.107" y="163.914" width="272.935" height="272.935" style="fill:rgb(255,0,227);fill-opacity:0.45;"/>
        </g>
        <g transform="matrix(0.181564,0,0,0.181564,146.239,-5.36441)">
            <rect x="268.107" y="163.914" width="272.935" height="272.935" style="fill:rgb(255,0,227);fill-opacity:0.45;"/>
        </g>
        <g transform="matrix(0.181564,0,0,0.181564,146.239,53.3395)">
            <rect x="268.107" y="163.914" width="272.935" height="272.935" style="fill:rgb(255,0,227);fill-opacity:0.45;"/>
        </g>
        <g transform="matrix(0.181564,0,0,0.181564,146.239,112.043)">
            <rect x="268.107" y="163.914" width="272.935" height="272.935" style="fill:rgb(255,0,227);fill-opacity:0.45;"/>
        </g>
        <g transform="matrix(0.181564,0,0,0.181564,146.239,170.747)">
            <rect x="268.107" y="163.914" width="272.935" height="272.935" style="fill:rgb(255,0,227);fill-opacity:0.45;"/>
        </g>
        <g transform="matrix(0.181564,0,0,0.181564,146.239,229.451)">
            <rect x="268.107" y="163.914" width="272.935" height="272.935" style="fill:rgb(255,0,227);fill-opacity:0.45;"/>
        </g>
        <g transform="matrix(0.181564,0,0,0.181564,207.992,-5.36441)">
            <rect x="268.107" y="163.914" width="272.935" height="272.935" style="fill:rgb(255,0,227);fill-opacity:0.45;"/>
        </g>
        <g transform="matrix(0.181564,0,0,0.181564,207.992,53.3395)">
            <rect x="268.107" y="163.914" width="272.935" height="272.935" style="fill:rgb(255,0,227);fill-opacity:0.45;"/>
        </g>
        <g transform="matrix(0.181564,0,0,0.181564,207.992,112.043)">
            <rect x="268.107" y="163.914" width="272.935" height="272.935" style="fill:rgb(255,0,227);fill-opacity:0.45;"/>
        </g>
        <g transform="matrix(0.181564,0,0,0.181564,207.992,170.747)">
            <rect x="268.107" y="163.914" width="272.935" height="272.935" style="fill:rgb(255,0,227);fill-opacity:0.45;"/>
        </g>
        <g transform="matrix(0.181564,0,0,0.181564,207.992,229.451)">
            <rect x="268.107" y="163.914" width="272.935" height="272.935" style="fill:rgb(255,0,227);fill-opacity:0.45;"/>
        </g>
        <g transform="matrix(0.181564,0,0,0.181564,-32.1602,-16.0378)">
            <rect x="268.107" y="163.914" width="272.935" height="272.935" style="fill:rgb(255,158,0);"/>
        </g>
        <g transform="matrix(0.181564,0,0,0.181564,-32.1602,42.6661)">
            <rect x="268.107" y="163.914" width="272.935" height="272.935" style="fill:rgb(255,158,0);fill-opacity:0.71;"/>
        </g>
        <g transform="matrix(0.181564,0,0,0.181564,-32.1602,101.37)">
            <rect x="268.107" y="163.914" width="272.935" height="272.935" style="fill:rgb(255,158,0);fill-opacity:0.6;"/>
        </g>
        <g transform="matrix(0.181564,0,0,0.181564,-32.1602,160.074)">
            <rect x="268.107" y="163.914" width="272.935" height="272.935" style="fill:rgb(255,158,0);fill-opacity:0.44;"/>
        </g>
        <g transform="matrix(0.181564,0,0,0.181564,-32.1602,218.778)">
            <rect x="268.107" y="163.914" width="272.935" height="272.935" style="fill:rgb(255,158,0);fill-opacity:0.35;"/>
        </g>
        <g transform="matrix(0.181564,0,0,0.181564,29.5933,-16.0378)">
            <rect x="268.107" y="163.914" width="272.935" height="272.935" style="fill:rgb(255,158,0);fill-opacity:0.71;"/>
        </g>
        <g transform="matrix(0.181564,0,0,0.181564,29.5933,42.6661)">
            <rect x="268.107" y="163.914" width="272.935" height="272.935" style="fill:rgb(255,158,0);fill-opacity:0.71;"/>
        </g>
        <g transform="matrix(0.181564,0,0,0.181564,29.5933,101.37)">
            <rect x="268.107" y="163.914" width="272.935" height="272.935" style="fill:rgb(255,158,0);fill-opacity:0.6;"/>
        </g>
        <g transform="matrix(0.181564,0,0,0.181564,29.5933,160.074)">
            <rect x="268.107" y="163.914" width="272.935" height="272.935" style="fill:rgb(255,158,0);fill-opacity:0.44;"/>
        </g>
        <g transform="matrix(0.181564,0,0,0.181564,29.5933,218.778)">
            <rect x="268.107" y="163.914" width="272.935" height="272.935" style="fill:rgb(255,158,0);fill-opacity:0.35;"/>
        </g>
        <g transform="matrix(0.181564,0,0,0.181564,91.3468,-16.0378)">
            <rect x="268.107" y="163.914" width="272.935" height="272.935" style="fill:rgb(255,158,0);fill-opacity:0.6;"/>
        </g>
        <g transform="matrix(0.181564,0,0,0.181564,91.3468,42.6661)">
            <rect x="268.107" y="163.914" width="272.935" height="272.935" style="fill:rgb(255,158,0);fill-opacity:0.6;"/>
        </g>
        <g transform="matrix(0.181564,0,0,0.181564,91.3468,101.37)">
            <rect x="268.107" y="163.914" width="272.935" height="272.935" style="fill:rgb(255,158,0);fill-opacity:0.6;"/>
        </g>
        <g transform="matrix(0.181564,0,0,0.181564,91.3468,160.074)">
            <rect x="268.107" y="163.914" width="272.935" height="272.935" style="fill:rgb(255,158,0);fill-opacity:0.44;"/>
        </g>
        <g transform="matrix(0.181564,0,0,0.181564,91.3468,218.778)">
            <rect x="268.107" y="163.914" width="272.935" height="272.935" style="fill:rgb(255,158,0);fill-opacity:0.35;"/>
        </g>
        <g transform="matrix(0.181564,0,0,0.181564,153.1,-16.0378)">
            <rect x="268.107" y="163.914" width="272.935" height="272.935" style="fill:rgb(255,158,0);fill-opacity:0.44;"/>
        </g>
        <g transform="matrix(0.181564,0,0,0.181564,153.1,42.6661)">
            <rect x="268.107" y="163.914" width="272.935" height="272.935" style="fill:rgb(255,158,0);fill-opacity:0.44;"/>
        </g>
        <g transform="matrix(0.181564,0,0,0.181564,153.1,101.37)">
            <rect x="268.107" y="163.914" width="272.935" height="272.935" style="fill:rgb(255,158,0);fill-opacity:0.44;"/>
        </g>
        <g transform="matrix(0.181564,0,0,0.181564,153.1,160.074)">
            <rect x="268.107" y="163.914" width="272.935" height="272.935" style="fill:rgb(255,158,0);fill-opacity:0.44;"/>
        </g>
        <g transform="matrix(0.181564,0,0,0.181564,153.1,218.778)">
            <rect x="268.107" y="163.914" width="272.935" height="272.935" style="fill:rgb(255,158,0);fill-opacity:0.35;"/>
        </g>
        <g transform="matrix(0.181564,0,0,0.181564,214.854,-16.0378)">
            <rect x="268.107" y="163.914" width="272.935" height="272.935" style="fill:rgb(255,158,0);fill-opacity:0.35;"/>
        </g>
        <g transform="matrix(0.181564,0,0,0.181564,214.854,42.6661)">
            <rect x="268.107" y="163.914" width="272.935" height="272.935" style="fill:rgb(255,158,0);fill-opacity:0.35;"/>
        </g>
        <g transform="matrix(0.181564,0,0,0.181564,214.854,101.37)">
            <rect x="268.107" y="163.914" width="272.935" height="272.935" style="fill:rgb(255,158,0);fill-opacity:0.35;"/>
        </g>
        <g transform="matrix(0.181564,0,0,0.181564,214.854,160.074)">
            <rect x="268.107" y="163.914" width="272.935" height="272.935" style="fill:rgb(255,158,0);fill-opacity:0.35;"/>
        </g>
        <g transform="matrix(0.181564,0,0,0.181564,214.854,218.778)">
            <rect x="268.107" y="163.914" width="272.935" height="272.935" style="fill:rgb(255,158,0);fill-opacity:0.35;"/>
        </g>
    </g>
</svg>
