<?xml version="1.0" encoding="UTF-8" standalone="no"?>
<!DOCTYPE svg PUBLIC "-//W3C//DTD SVG 1.1//EN" "http://www.w3.org/Graphics/SVG/1.1/DTD/svg11.dtd">
<svg width="100%" height="100%" viewBox="0 0 237 101" version="1.1" xmlns="http://www.w3.org/2000/svg" xmlns:xlink="http://www.w3.org/1999/xlink" xml:space="preserve" xmlns:serif="http://www.serif.com/" style="fill-rule:evenodd;clip-rule:evenodd;stroke-linecap:square;stroke-linejoin:round;stroke-miterlimit:1.5;">
    <g transform="matrix(1,0,0,1,-38.5187,-83.5187)">
        <g transform="matrix(0.555556,0,0,1,34.5184,-4.49245)">
            <path d="M60,100L420,100" style="fill:none;stroke:rgb(158,0,255);stroke-opacity:0.67;stroke-width:9.1px;"/>
        </g>
        <g transform="matrix(0.555556,0,0,1,34.5184,15.5076)">
            <path d="M60,100L420,100" style="fill:none;stroke:rgb(158,0,255);stroke-opacity:0.67;stroke-width:9.1px;"/>
        </g>
        <g transform="matrix(0.555556,0,0,1,34.5184,35.5076)">
            <path d="M60,100L420,100" style="fill:none;stroke:rgb(158,0,255);stroke-opacity:0.67;stroke-width:9.1px;"/>
        </g>
        <g transform="matrix(0.555556,0,0,1,34.5184,55.5076)">
            <path d="M60,100L420,100" style="fill:none;stroke:rgb(158,0,255);stroke-opacity:0.67;stroke-width:9.1px;"/>
        </g>
        <g transform="matrix(0.555556,0,0,1,34.5184,75.5076)">
            <path d="M60,100L420,100" style="fill:none;stroke:rgb(158,0,255);stroke-opacity:0.67;stroke-width:9.1px;"/>
        </g>
        <g transform="matrix(0.555556,0,0,1,36.6667,-7.5)">
            <path d="M60,100L420,100" style="fill:none;stroke:rgb(255,158,0);stroke-opacity:0.78;stroke-width:9.1px;"/>
        </g>
        <g transform="matrix(0.555556,0,0,1,36.6667,12.5)">
            <path d="M60,100L420,100" style="fill:none;stroke:rgb(255,158,0);stroke-opacity:0.78;stroke-width:9.1px;"/>
        </g>
        <g transform="matrix(0.555556,0,0,1,36.6667,32.5)">
            <path d="M60,100L420,100" style="fill:none;stroke:rgb(255,158,0);stroke-opacity:0.78;stroke-width:9.1px;"/>
        </g>
        <g transform="matrix(0.555556,0,0,1,36.6667,52.5)">
            <path d="M60,100L420,100" style="fill:none;stroke:rgb(255,158,0);stroke-opacity:0.78;stroke-width:9.1px;"/>
        </g>
        <g transform="matrix(0.555556,0,0,1,36.6667,72.5)">
            <path d="M60,100L420,100" style="fill:none;stroke:rgb(255,158,0);stroke-opacity:0.78;stroke-width:9.1px;"/>
        </g>
        <path d="M40,95L45,100C46.297,95.339 50.678,89.294 57.475,85" style="fill:none;stroke:rgb(158,0,255);stroke-opacity:0.48;stroke-width:2.96px;stroke-linecap:round;"/>
        <g transform="matrix(1,0,0,1,0,3.00755)">
            <path d="M40,95L45,100C46.297,95.339 50.678,89.294 57.475,85" style="fill:none;stroke:rgb(255,158,0);stroke-opacity:0.68;stroke-width:2.96px;stroke-linecap:round;"/>
        </g>
        <g transform="matrix(1,0,0,1,0,20)">
            <path d="M40,95L45,100C46.297,95.339 50.678,89.294 57.475,85" style="fill:none;stroke:rgb(158,0,255);stroke-opacity:0.48;stroke-width:2.96px;stroke-linecap:round;"/>
        </g>
        <g transform="matrix(1,0,0,1,0,23.0076)">
            <path d="M40,95L45,100C46.297,95.339 50.678,89.294 57.475,85" style="fill:none;stroke:rgb(255,158,0);stroke-opacity:0.68;stroke-width:2.96px;stroke-linecap:round;"/>
        </g>
        <g transform="matrix(1,0,0,1,0,40)">
            <path d="M40,95L45,100C46.297,95.339 50.678,89.294 57.475,85" style="fill:none;stroke:rgb(158,0,255);stroke-opacity:0.48;stroke-width:2.96px;stroke-linecap:round;"/>
        </g>
        <g transform="matrix(1,0,0,1,0,43.0076)">
            <path d="M40,95L45,100C46.297,95.339 50.678,89.294 57.475,85" style="fill:none;stroke:rgb(255,158,0);stroke-opacity:0.68;stroke-width:2.96px;stroke-linecap:round;"/>
        </g>
        <g transform="matrix(1,0,0,1,0,60)">
            <path d="M40,95L45,100C46.297,95.339 50.678,89.294 57.475,85" style="fill:none;stroke:rgb(158,0,255);stroke-opacity:0.48;stroke-width:2.96px;stroke-linecap:round;"/>
        </g>
        <g transform="matrix(1,0,0,1,0,63.0076)">
            <path d="M40,95L45,100C46.297,95.339 50.678,89.294 57.475,85" style="fill:none;stroke:rgb(255,158,0);stroke-opacity:0.68;stroke-width:2.96px;stroke-linecap:round;"/>
        </g>
        <g transform="matrix(1,0,0,1,0,80)">
            <path d="M40,95L45,100C46.297,95.339 50.678,89.294 57.475,85" style="fill:none;stroke:rgb(158,0,255);stroke-opacity:0.48;stroke-width:2.96px;stroke-linecap:round;"/>
        </g>
        <g transform="matrix(1,0,0,1,0,83.0076)">
            <path d="M40,95L45,100C46.297,95.339 50.678,89.294 57.475,85" style="fill:none;stroke:rgb(255,158,0);stroke-opacity:0.68;stroke-width:2.96px;stroke-linecap:round;"/>
        </g>
    </g>
</svg>
