<?xml version="1.0" encoding="UTF-8" standalone="no"?>
<!DOCTYPE svg PUBLIC "-//W3C//DTD SVG 1.1//EN" "http://www.w3.org/Graphics/SVG/1.1/DTD/svg11.dtd">
<svg width="100%" height="100%" viewBox="0 0 305 215" version="1.1" xmlns="http://www.w3.org/2000/svg" xmlns:xlink="http://www.w3.org/1999/xlink" xml:space="preserve" xmlns:serif="http://www.serif.com/" style="fill-rule:evenodd;clip-rule:evenodd;stroke-linejoin:round;stroke-miterlimit:2;">
    <g transform="matrix(1,0,0,1,-210.165,-165.438)">
        <g transform="matrix(0.181564,0,0,0.181564,161.487,146.351)">
            <rect x="268.107" y="163.914" width="272.935" height="272.935" style="fill:rgb(255,0,227);fill-opacity:0.45;"/>
        </g>
        <g transform="matrix(0.181564,0,0,0.181564,217.903,300.354)">
            <rect x="268.107" y="163.914" width="272.935" height="272.935" style="fill:rgb(255,0,227);fill-opacity:0.45;"/>
        </g>
        <g transform="matrix(0.181564,0,0,0.181564,282.706,195.906)">
            <rect x="268.107" y="163.914" width="272.935" height="272.935" style="fill:rgb(255,0,227);fill-opacity:0.45;"/>
        </g>
        <g transform="matrix(0.181564,0,0,0.181564,351.321,250.798)">
            <rect x="268.107" y="163.914" width="272.935" height="272.935" style="fill:rgb(255,0,227);fill-opacity:0.45;"/>
        </g>
        <g transform="matrix(0.181564,0,0,0.181564,410.025,176.465)">
            <rect x="268.107" y="163.914" width="272.935" height="272.935" style="fill:rgb(255,0,227);fill-opacity:0.45;"/>
        </g>
        <g transform="matrix(0.181564,0,0,0.181564,168.348,135.678)">
            <rect x="268.107" y="163.914" width="272.935" height="272.935" style="fill:rgb(255,158,0);"/>
        </g>
        <g transform="matrix(0.181564,0,0,0.181564,224.765,289.68)">
            <rect x="268.107" y="163.914" width="272.935" height="272.935" style="fill:rgb(255,158,0);fill-opacity:0.71;"/>
        </g>
        <g transform="matrix(0.181564,0,0,0.181564,289.568,185.233)">
            <rect x="268.107" y="163.914" width="272.935" height="272.935" style="fill:rgb(255,158,0);fill-opacity:0.6;"/>
        </g>
        <g transform="matrix(0.181564,0,0,0.181564,358.183,240.125)">
            <rect x="268.107" y="163.914" width="272.935" height="272.935" style="fill:rgb(255,158,0);fill-opacity:0.44;"/>
        </g>
        <g transform="matrix(0.181564,0,0,0.181564,416.887,165.792)">
            <rect x="268.107" y="163.914" width="272.935" height="272.935" style="fill:rgb(255,158,0);fill-opacity:0.35;"/>
        </g>
    </g>
</svg>
