<?xml version="1.0" encoding="UTF-8" standalone="no"?>
<!DOCTYPE svg PUBLIC "-//W3C//DTD SVG 1.1//EN" "http://www.w3.org/Graphics/SVG/1.1/DTD/svg11.dtd">
<svg width="100%" height="100%" viewBox="0 0 51 47" version="1.1" xmlns="http://www.w3.org/2000/svg" xmlns:xlink="http://www.w3.org/1999/xlink" xml:space="preserve" xmlns:serif="http://www.serif.com/" style="fill-rule:evenodd;clip-rule:evenodd;stroke-linecap:round;stroke-linejoin:round;stroke-miterlimit:1.5;">
    <g transform="matrix(1,0,0,1,-147.329,-79.1138)">
        <g transform="matrix(1,0,0,1,-210.165,-165.438)">
            <g transform="matrix(1,0,0,1,210.165,165.438)">
                <circle cx="155.116" cy="117.957" r="7.765" style="fill:rgb(255,0,227);fill-opacity:0.42;"/>
            </g>
        </g>
        <g transform="matrix(1,0,0,1,-210.165,-165.438)">
            <g transform="matrix(1,0,0,1,227.194,165.438)">
                <circle cx="155.116" cy="117.957" r="7.765" style="fill:rgb(255,0,227);fill-opacity:0.42;"/>
            </g>
        </g>
        <g transform="matrix(1,0,0,1,-210.165,-165.438)">
            <g transform="matrix(1,0,0,1,244.032,165.438)">
                <circle cx="155.116" cy="117.957" r="7.765" style="fill:rgb(255,0,227);fill-opacity:0.42;"/>
            </g>
        </g>
        <g transform="matrix(1,0,0,1,-210.165,-165.438)">
            <g transform="matrix(1,0,0,1,244.032,149.909)">
                <circle cx="155.116" cy="117.957" r="7.765" style="fill:rgb(255,0,227);fill-opacity:0.42;"/>
            </g>
        </g>
        <g transform="matrix(1,0,0,1,-210.165,-165.438)">
            <g transform="matrix(1,0,0,1,227.194,134.38)">
                <circle cx="155.116" cy="117.957" r="7.765" style="fill:rgb(255,0,227);fill-opacity:0.42;"/>
            </g>
        </g>
        <g transform="matrix(1,0,0,1,-210.165,-165.438)">
            <g transform="matrix(1,0,0,1,211.281,165.438)">
                <circle cx="155.116" cy="117.957" r="7.765" style="fill:rgb(255,158,0);fill-opacity:0.42;"/>
            </g>
        </g>
        <g transform="matrix(1,0,0,1,-210.165,-165.438)">
            <g transform="matrix(1,0,0,1,228.31,165.438)">
                <circle cx="155.116" cy="117.957" r="7.765" style="fill:rgb(255,158,0);fill-opacity:0.42;"/>
            </g>
        </g>
        <g transform="matrix(1,0,0,1,-210.165,-165.438)">
            <g transform="matrix(1,0,0,1,245.148,165.438)">
                <circle cx="155.116" cy="117.957" r="7.765" style="fill:rgb(255,158,0);fill-opacity:0.42;"/>
            </g>
        </g>
        <g transform="matrix(1,0,0,1,-210.165,-165.438)">
            <g transform="matrix(1,0,0,1,245.148,149.909)">
                <circle cx="155.116" cy="117.957" r="7.765" style="fill:rgb(255,158,0);fill-opacity:0.42;"/>
            </g>
        </g>
        <g transform="matrix(1,0,0,1,-210.165,-165.438)">
            <g transform="matrix(1,0,0,1,228.31,134.38)">
                <circle cx="155.116" cy="117.957" r="7.765" style="fill:rgb(255,158,0);fill-opacity:0.42;"/>
            </g>
        </g>
        <g transform="matrix(1,0,0,1,-210.165,-165.438)">
            <g transform="matrix(0.828048,0,0,0.763687,236.18,218.535)">
                <rect x="146.531" y="74.763" width="20.334" height="20.334" style="fill:none;stroke:url(#_Linear1);stroke-width:0.05px;"/>
            </g>
        </g>
        <g transform="matrix(1,0,0,1,-210.165,-165.438)">
            <g transform="matrix(0.828048,0,0,0.763687,253.018,218.535)">
                <rect x="146.531" y="74.763" width="20.334" height="20.334" style="fill:none;stroke:url(#_Linear2);stroke-width:0.05px;"/>
            </g>
        </g>
        <g transform="matrix(1,0,0,1,-210.165,-165.438)">
            <g transform="matrix(0.828048,0,0,0.763687,269.855,218.535)">
                <rect x="146.531" y="74.763" width="20.334" height="20.334" style="fill:none;stroke:url(#_Linear3);stroke-width:0.05px;"/>
            </g>
        </g>
        <g transform="matrix(1,0,0,1,-210.165,-165.438)">
            <g transform="matrix(0.828048,0,0,0.763687,269.855,203.006)">
                <rect x="146.531" y="74.763" width="20.334" height="20.334" style="fill:none;stroke:url(#_Linear4);stroke-width:0.05px;"/>
            </g>
        </g>
        <g transform="matrix(1,0,0,1,-210.165,-165.438)">
            <g transform="matrix(0.828048,0,0,0.763687,269.855,187.477)">
                <rect x="146.531" y="74.763" width="20.334" height="20.334" style="fill:none;stroke:url(#_Linear5);stroke-width:0.05px;"/>
            </g>
        </g>
        <g transform="matrix(1,0,0,1,-210.165,-165.438)">
            <g transform="matrix(0.828048,0,0,0.763687,253.018,187.477)">
                <rect x="146.531" y="74.763" width="20.334" height="20.334" style="fill:none;stroke:url(#_Linear6);stroke-width:0.05px;"/>
            </g>
        </g>
        <g transform="matrix(1,0,0,1,-210.165,-165.438)">
            <g transform="matrix(0.828048,0,0,0.763687,236.18,187.477)">
                <rect x="146.531" y="74.763" width="20.334" height="20.334" style="fill:none;stroke:url(#_Linear7);stroke-width:0.05px;"/>
            </g>
        </g>
        <g transform="matrix(1,0,0,1,-210.165,-165.438)">
            <g transform="matrix(0.828048,0,0,0.763687,236.18,203.006)">
                <rect x="146.531" y="74.763" width="20.334" height="20.334" style="fill:none;stroke:url(#_Linear8);stroke-width:0.05px;"/>
            </g>
        </g>
    </g>
    <defs>
        <linearGradient id="_Linear1" x1="0" y1="0" x2="1" y2="0" gradientUnits="userSpaceOnUse" gradientTransform="matrix(20.3344,0,0,20.3344,146.531,84.9306)"><stop offset="0" style="stop-color:rgb(255,0,227);stop-opacity:1"/><stop offset="1" style="stop-color:rgb(255,158,0);stop-opacity:1"/></linearGradient>
        <linearGradient id="_Linear2" x1="0" y1="0" x2="1" y2="0" gradientUnits="userSpaceOnUse" gradientTransform="matrix(20.3344,0,0,20.3344,146.531,84.9306)"><stop offset="0" style="stop-color:rgb(255,0,227);stop-opacity:1"/><stop offset="1" style="stop-color:rgb(255,158,0);stop-opacity:1"/></linearGradient>
        <linearGradient id="_Linear3" x1="0" y1="0" x2="1" y2="0" gradientUnits="userSpaceOnUse" gradientTransform="matrix(20.3344,0,0,20.3344,146.531,84.9306)"><stop offset="0" style="stop-color:rgb(255,0,227);stop-opacity:1"/><stop offset="1" style="stop-color:rgb(255,158,0);stop-opacity:1"/></linearGradient>
        <linearGradient id="_Linear4" x1="0" y1="0" x2="1" y2="0" gradientUnits="userSpaceOnUse" gradientTransform="matrix(20.3344,0,0,20.3344,146.531,84.9306)"><stop offset="0" style="stop-color:rgb(255,0,227);stop-opacity:1"/><stop offset="1" style="stop-color:rgb(255,158,0);stop-opacity:1"/></linearGradient>
        <linearGradient id="_Linear5" x1="0" y1="0" x2="1" y2="0" gradientUnits="userSpaceOnUse" gradientTransform="matrix(20.3344,0,0,20.3344,146.531,84.9306)"><stop offset="0" style="stop-color:rgb(255,0,227);stop-opacity:1"/><stop offset="1" style="stop-color:rgb(255,158,0);stop-opacity:1"/></linearGradient>
        <linearGradient id="_Linear6" x1="0" y1="0" x2="1" y2="0" gradientUnits="userSpaceOnUse" gradientTransform="matrix(20.3344,0,0,20.3344,146.531,84.9306)"><stop offset="0" style="stop-color:rgb(255,0,227);stop-opacity:1"/><stop offset="1" style="stop-color:rgb(255,158,0);stop-opacity:1"/></linearGradient>
        <linearGradient id="_Linear7" x1="0" y1="0" x2="1" y2="0" gradientUnits="userSpaceOnUse" gradientTransform="matrix(20.3344,0,0,20.3344,146.531,84.9306)"><stop offset="0" style="stop-color:rgb(255,0,227);stop-opacity:1"/><stop offset="1" style="stop-color:rgb(255,158,0);stop-opacity:1"/></linearGradient>
        <linearGradient id="_Linear8" x1="0" y1="0" x2="1" y2="0" gradientUnits="userSpaceOnUse" gradientTransform="matrix(20.3344,0,0,20.3344,146.531,84.9306)"><stop offset="0" style="stop-color:rgb(255,0,227);stop-opacity:1"/><stop offset="1" style="stop-color:rgb(255,158,0);stop-opacity:1"/></linearGradient>
    </defs>
</svg>
