<?xml version="1.0" encoding="UTF-8" standalone="no"?>
<!DOCTYPE svg PUBLIC "-//W3C//DTD SVG 1.1//EN" "http://www.w3.org/Graphics/SVG/1.1/DTD/svg11.dtd">
<svg width="100%" height="100%" viewBox="0 0 456 456" version="1.1" xmlns="http://www.w3.org/2000/svg" xmlns:xlink="http://www.w3.org/1999/xlink" xml:space="preserve" xmlns:serif="http://www.serif.com/" style="fill-rule:evenodd;clip-rule:evenodd;stroke-linejoin:round;stroke-miterlimit:2;">
    <path d="M0,0L0,455.731L455.731,455.731L455.731,0L0,0ZM139.94,375.963C139.94,381.767 135.235,386.472 129.431,386.472L84.71,386.472C78.906,386.472 74.201,381.767 74.201,375.963L74.201,185.18C74.201,179.376 78.906,174.671 84.71,174.671L129.431,174.671C135.235,174.671 139.94,179.376 139.94,185.18L139.94,375.963ZM106.998,145.491C86.69,145.902 68.843,128.94 68.847,107.303C68.847,86.318 86.129,69.198 107.255,69.215C128.128,69.232 145.343,86.472 145.298,107.449C145.248,129.413 127.02,145.969 106.998,145.491ZM386.884,382.153C386.884,384.563 384.93,386.516 382.52,386.515L325.368,386.501C322.959,386.5 321.006,384.547 321.006,382.138L321.006,264.331C321.006,254.148 316.88,244.924 310.204,238.252C303.44,231.484 294.055,227.336 283.703,227.453C263.424,227.682 247.249,244.521 247.249,264.801L247.249,382.124C247.249,384.534 245.295,386.487 242.885,386.486L185.874,386.472C183.465,386.471 181.513,384.518 181.513,382.11L181.513,179.034C181.513,176.625 183.466,174.671 185.876,174.671L241.671,174.671C244.08,174.671 246.034,176.624 246.034,179.034L246.034,202.452C246.039,202.442 246.259,202.47 246.633,202.527C247.711,200.577 248.885,198.688 250.153,196.869C261.781,180.181 281.113,169.263 302.995,169.263L314.465,169.263C354.461,169.263 386.885,201.686 386.885,241.683L386.885,382.153L386.884,382.153Z" style="fill:url(#_Linear1);fill-rule:nonzero;"/>
    <defs>
        <linearGradient id="_Linear1" x1="0" y1="0" x2="1" y2="0" gradientUnits="userSpaceOnUse" gradientTransform="matrix(455.731,0,0,455.731,0,227.865)"><stop offset="0" style="stop-color:rgb(158,0,255);stop-opacity:1"/><stop offset="1" style="stop-color:rgb(255,158,0);stop-opacity:1"/></linearGradient>
    </defs>
</svg>
