<?xml version="1.0" encoding="UTF-8" standalone="no"?>
<!DOCTYPE svg PUBLIC "-//W3C//DTD SVG 1.1//EN" "http://www.w3.org/Graphics/SVG/1.1/DTD/svg11.dtd">
<svg width="100%" height="100%" viewBox="0 0 364 169" version="1.1" xmlns="http://www.w3.org/2000/svg" xmlns:xlink="http://www.w3.org/1999/xlink" xml:space="preserve" xmlns:serif="http://www.serif.com/" style="fill-rule:evenodd;clip-rule:evenodd;stroke-linecap:square;stroke-miterlimit:1.5;">
    <g transform="matrix(1,0,0,1,-54.962,-31.7714)">
        <rect x="58.601" y="88.724" width="143.664" height="108.084" style="fill:none;stroke:rgb(255,158,0);stroke-opacity:0.77;stroke-width:2.41px;"/>
        <g transform="matrix(1,0,0,1,-0.439954,1.53987)">
            <rect x="58.601" y="88.724" width="143.664" height="108.084" style="fill:none;stroke:rgb(158,0,255);stroke-opacity:0.64;stroke-width:2.41px;"/>
        </g>
        <g transform="matrix(0.190503,0,0,0.190503,90.1046,102.437)">
            <g transform="matrix(5.24926,0,0,5.24926,-485.424,-568.561)">
                <path d="M220,100L412.37,100" style="fill:none;stroke:rgb(158,0,255);stroke-width:6.26px;"/>
            </g>
        </g>
        <g transform="matrix(0.190503,0,0,0.190503,90.1046,102.437)">
            <g transform="matrix(5.24926,0,0,5.24926,-485.424,-463.575)">
                <path d="M220,100L412.37,100" style="fill:none;stroke:rgb(158,0,255);stroke-width:6.26px;"/>
            </g>
        </g>
        <g transform="matrix(0.190503,0,0,0.190503,90.1046,102.437)">
            <g transform="matrix(5.24926,0,0,5.24926,-485.424,-358.59)">
                <path d="M220,100L412.37,100" style="fill:none;stroke:rgb(158,0,255);stroke-width:6.26px;"/>
            </g>
        </g>
        <g transform="matrix(0.190503,0,0,0.190503,90.1046,102.437)">
            <g transform="matrix(5.24926,0,0,5.24926,-485.424,-253.605)">
                <path d="M220,100L412.37,100" style="fill:none;stroke:rgb(158,0,255);stroke-width:6.26px;"/>
            </g>
        </g>
        <g transform="matrix(0.190503,0,0,0.190503,90.1046,102.437)">
            <g transform="matrix(5.24926,0,0,5.24926,-485.424,-148.62)">
                <path d="M220,100L412.37,100" style="fill:none;stroke:rgb(158,0,255);stroke-width:6.26px;"/>
            </g>
        </g>
        <g transform="matrix(0.190503,0,0,0.190503,90.1046,102.437)">
            <g transform="matrix(5.24926,0,0,5.24926,-485.424,-43.6347)">
                <path d="M220,100L412.37,100" style="fill:none;stroke:rgb(158,0,255);stroke-width:6.26px;"/>
            </g>
        </g>
        <g transform="matrix(0.190503,0,0,0.190503,90.1046,102.437)">
            <g transform="matrix(5.24926,0,0,5.24926,-472.982,-590.212)">
                <path d="M220,100L412.37,100" style="fill:none;stroke:rgb(255,158,0);stroke-opacity:0.77;stroke-width:6.26px;"/>
            </g>
        </g>
        <g transform="matrix(0.190503,0,0,0.190503,90.1046,102.437)">
            <g transform="matrix(5.24926,0,0,5.24926,-480.672,-531.17)">
                <path d="M412.37,49.68C412.37,40.99 405.326,33.946 396.636,33.946C338.05,33.946 132.921,33.946 74.335,33.946C65.646,33.946 58.601,40.99 58.601,49.68C58.601,49.68 58.601,49.68 58.601,49.68C58.601,58.37 65.646,65.414 74.335,65.414C132.921,65.414 338.05,65.414 396.636,65.414C405.326,65.414 412.37,58.37 412.37,49.68C412.37,49.68 412.37,49.68 412.37,49.68Z" style="fill:none;stroke:rgb(255,158,0);stroke-opacity:0.51;stroke-width:2.41px;"/>
            </g>
        </g>
        <g transform="matrix(0.190503,0,0,0.190503,90.1046,102.437)">
            <path d="M350.604,379.231L34.824,379.231C15.082,379.231 8.4,377.609 8.4,389.387C8.4,407.865 60.048,416.494 88.316,416.494L297.1,416.494C325.377,416.494 377.016,407.864 377.016,389.387C377.016,377.61 370.332,379.231 350.604,379.231Z" style="fill:rgb(158,0,255);fill-rule:nonzero;"/>
            <path d="M416.166,45.431C409.201,38.478 399.186,36.726 390.508,39.795C393.565,31.105 391.82,21.087 384.873,14.135C375.209,4.484 359.574,4.489 349.939,14.142C344.769,19.312 342.587,26.173 342.945,32.934C344.461,55.296 331.91,73.294 322.324,82.865C296.451,108.74 216.687,115.344 216.687,115.344L216.703,115.435C200.572,117.662 185.057,124.414 171.954,135.597C166.36,137.805 161.177,127.951 172.524,119.074C178.204,114.626 192.034,109.442 186.878,106.647C83.191,109.361 0,184.23 0,276.406C0,370.323 43.008,361.107 192.639,361.107C354.524,361.107 385.323,370.323 385.323,276.406C385.323,234.28 367.864,195.802 339.089,166.103C334.829,183.436 331.987,201.75 330.816,215.166L330.785,215.59L330.707,215.991C327.543,238.662 317.543,258.976 301.748,274.767C282.221,294.296 256.256,305.056 228.641,305.056C203.881,305.056 182.192,297.756 163.528,281.899C153.54,272.779 165.442,260.722 176.667,271.434C180.198,274.073 183.874,276.344 187.688,278.363C188.596,278.875 189.508,279.367 190.448,279.83C193.614,281.377 196.794,282.767 200.081,283.908C202.136,284.635 204.204,285.173 206.288,285.744C208.804,286.409 211.274,287.165 213.837,287.611C218.562,288.444 223.33,288.94 228.134,288.97C238.041,289.031 247.873,287.164 257.339,283.862C269.381,279.677 280.787,273.068 290.404,263.435C304.39,249.466 312.308,231.938 314.855,213.784L315.146,213.822C315.146,213.822 321.757,134.039 347.642,108.174C357.335,98.456 375.663,85.637 398.492,87.557C398.617,87.572 398.724,87.58 398.849,87.58C399.017,87.596 399.156,87.571 399.343,87.587L399.343,87.487C405.437,87.327 411.489,85.032 416.169,80.363C425.795,70.718 425.812,55.086 416.166,45.431Z" style="fill:rgb(158,0,255);fill-rule:nonzero;"/>
        </g>
        <g transform="matrix(0.190503,0,0,0.190503,90.1046,102.437)">
            <g transform="matrix(1,0,0,1,-21.2471,-4.61894)">
                <path d="M350.604,379.231L34.824,379.231C15.082,379.231 8.4,377.609 8.4,389.387C8.4,407.865 60.048,416.494 88.316,416.494L297.1,416.494C325.377,416.494 377.016,407.864 377.016,389.387C377.016,377.61 370.332,379.231 350.604,379.231Z" style="fill:rgb(255,158,0);fill-opacity:0.55;fill-rule:nonzero;"/>
                <path d="M416.166,45.431C409.201,38.478 399.186,36.726 390.508,39.795C393.565,31.105 391.82,21.087 384.873,14.135C375.209,4.484 359.574,4.489 349.939,14.142C344.769,19.312 342.587,26.173 342.945,32.934C344.461,55.296 331.91,73.294 322.324,82.865C296.451,108.74 216.687,115.344 216.687,115.344L216.703,115.435C200.572,117.662 185.057,124.414 171.954,135.597C166.36,137.805 161.177,127.951 172.524,119.074C178.204,114.626 192.034,109.442 186.878,106.647C83.191,109.361 0,184.23 0,276.406C0,370.323 43.008,361.107 192.639,361.107C354.524,361.107 385.323,370.323 385.323,276.406C385.323,234.28 367.864,195.802 339.089,166.103C334.829,183.436 331.987,201.75 330.816,215.166L330.785,215.59L330.707,215.991C327.543,238.662 317.543,258.976 301.748,274.767C282.221,294.296 256.256,305.056 228.641,305.056C203.881,305.056 182.192,297.756 163.528,281.899C153.54,272.779 165.442,260.722 176.667,271.434C180.198,274.073 183.874,276.344 187.688,278.363C188.596,278.875 189.508,279.367 190.448,279.83C193.614,281.377 196.794,282.767 200.081,283.908C202.136,284.635 204.204,285.173 206.288,285.744C208.804,286.409 211.274,287.165 213.837,287.611C218.562,288.444 223.33,288.94 228.134,288.97C238.041,289.031 247.873,287.164 257.339,283.862C269.381,279.677 280.787,273.068 290.404,263.435C304.39,249.466 312.308,231.938 314.855,213.784L315.146,213.822C315.146,213.822 321.757,134.039 347.642,108.174C357.335,98.456 375.663,85.637 398.492,87.557C398.617,87.572 398.724,87.58 398.849,87.58C399.017,87.596 399.156,87.571 399.343,87.587L399.343,87.487C405.437,87.327 411.489,85.032 416.169,80.363C425.795,70.718 425.812,55.086 416.166,45.431Z" style="fill:rgb(255,158,0);fill-opacity:0.55;fill-rule:nonzero;"/>
            </g>
        </g>
        <g transform="matrix(0.190503,0,0,0.190503,90.1046,102.437)">
            <g transform="matrix(5.24926,0,0,5.24926,-472.982,-537.719)">
                <path d="M412.37,49.68C412.37,40.99 405.326,33.946 396.636,33.946C338.05,33.946 132.921,33.946 74.335,33.946C65.646,33.946 58.601,40.99 58.601,49.68C58.601,49.68 58.601,49.68 58.601,49.68C58.601,58.37 65.646,65.414 74.335,65.414C132.921,65.414 338.05,65.414 396.636,65.414C405.326,65.414 412.37,58.37 412.37,49.68C412.37,49.68 412.37,49.68 412.37,49.68Z" style="fill:none;stroke:rgb(158,0,255);stroke-opacity:0.73;stroke-width:2.41px;"/>
            </g>
        </g>
        <g transform="matrix(0.190503,0,0,0.190503,90.1046,102.437)">
            <g transform="matrix(5.24926,0,0,5.24926,-472.982,-485.227)">
                <path d="M220,100L412.37,100" style="fill:none;stroke:rgb(255,158,0);stroke-opacity:0.77;stroke-width:6.26px;"/>
            </g>
        </g>
        <g transform="matrix(0.190503,0,0,0.190503,90.1046,102.437)">
            <g transform="matrix(5.24926,0,0,5.24926,-472.982,-380.241)">
                <path d="M220,100L412.37,100" style="fill:none;stroke:rgb(255,158,0);stroke-opacity:0.77;stroke-width:6.26px;"/>
            </g>
        </g>
        <g transform="matrix(0.190503,0,0,0.190503,90.1046,102.437)">
            <g transform="matrix(5.24926,0,0,5.24926,-472.982,-275.256)">
                <path d="M220,100L412.37,100" style="fill:none;stroke:rgb(255,158,0);stroke-opacity:0.77;stroke-width:6.26px;"/>
            </g>
        </g>
        <g transform="matrix(0.190503,0,0,0.190503,90.1046,102.437)">
            <g transform="matrix(5.24926,0,0,5.24926,-472.982,-170.271)">
                <path d="M220,100L412.37,100" style="fill:none;stroke:rgb(255,158,0);stroke-opacity:0.77;stroke-width:6.26px;"/>
            </g>
        </g>
        <g transform="matrix(0.190503,0,0,0.190503,90.1046,102.437)">
            <g transform="matrix(5.24926,0,0,5.24926,-472.982,-65.286)">
                <path d="M220,100L412.37,100" style="fill:none;stroke:rgb(255,158,0);stroke-opacity:0.77;stroke-width:6.26px;"/>
            </g>
        </g>
        <g transform="matrix(0.190503,0,0,0.190503,90.1046,102.437)">
            <g transform="matrix(5.24926,0,0,5.24926,-451.331,-527.264)">
                <text x="100.786px" y="52.442px" style="font-family:'Montserrat-Thin', 'Montserrat';font-weight:250;font-size:12px;fill:rgb(158,0,255);fill-opacity:0.69;">Se<tspan x="114.862px 121.75px 126.166px 132.586px " y="52.442px 52.442px 52.442px 52.442px ">arch</tspan></text>
            </g>
        </g>
        <g transform="matrix(0.190503,0,0,0.190503,90.1046,102.437)">
            <g transform="matrix(5.24926,0,0,5.24926,-453.223,-525.372)">
                <text x="100.786px" y="52.442px" style="font-family:'Montserrat-Thin', 'Montserrat';font-weight:250;font-size:12px;fill:rgb(255,158,0);fill-opacity:0.27;">Se<tspan x="114.862px 121.75px 126.166px 132.586px " y="52.442px 52.442px 52.442px 52.442px ">arch</tspan></text>
            </g>
        </g>
        <g transform="matrix(0.190503,0,0,0.190503,90.1046,102.437)">
            <g transform="matrix(5.24926,0,0,5.24926,-495.892,-551.761)">
                <circle cx="82.831" cy="50.885" r="6.371" style="fill:none;stroke:rgb(158,0,255);stroke-opacity:0.54;stroke-width:1.31px;"/>
            </g>
        </g>
        <g transform="matrix(0.190503,0,0,0.190503,90.1046,102.437)">
            <g transform="matrix(5.24926,0,0,5.24926,-499.827,-548.128)">
                <circle cx="82.831" cy="50.885" r="6.371" style="fill:none;stroke:rgb(255,158,0);stroke-opacity:0.61;stroke-width:1.31px;"/>
            </g>
        </g>
        <g transform="matrix(0.190503,0,0,0.190503,90.1046,102.437)">
            <g transform="matrix(4.5399,0,0,5.16594,-407.295,-532.904)">
                <path d="M84.599,53.245L92.601,57.787" style="fill:none;stroke:rgb(158,0,255);stroke-opacity:0.54;stroke-width:1.42px;"/>
            </g>
        </g>
        <g transform="matrix(0.190503,0,0,0.190503,90.1046,102.437)">
            <g transform="matrix(4.5399,0,0,5.16594,-411.23,-529.272)">
                <path d="M84.599,53.245L92.601,57.787" style="fill:none;stroke:rgb(255,158,0);stroke-opacity:0.61;stroke-width:1.42px;"/>
            </g>
        </g>
    </g>
</svg>
