<?xml version="1.0" encoding="UTF-8" standalone="no"?>
<!DOCTYPE svg PUBLIC "-//W3C//DTD SVG 1.1//EN" "http://www.w3.org/Graphics/SVG/1.1/DTD/svg11.dtd">
<svg width="100%" height="100%" viewBox="0 0 69 106" version="1.1" xmlns="http://www.w3.org/2000/svg" xmlns:xlink="http://www.w3.org/1999/xlink" xml:space="preserve" xmlns:serif="http://www.serif.com/" style="fill-rule:evenodd;clip-rule:evenodd;stroke-linejoin:round;stroke-miterlimit:2;">
    <g transform="matrix(1,0,0,1,-49.1559,-71.7215)">
        <g transform="matrix(1,0,0,1,-210.165,-165.438)">
            <g transform="matrix(-3.65573e-18,-0.0597026,-0.0659057,4.03556e-18,288.112,358.202)">
                <rect x="268.107" y="163.914" width="272.935" height="272.935" style="fill:rgb(255,0,227);fill-opacity:0.45;"/>
            </g>
        </g>
        <g transform="matrix(1,0,0,1,-210.165,-165.438)">
            <g transform="matrix(-3.65573e-18,-0.0597026,-0.0659057,4.03556e-18,288.112,337.979)">
                <rect x="268.107" y="163.914" width="272.935" height="272.935" style="fill:rgb(255,0,227);fill-opacity:0.45;"/>
            </g>
        </g>
        <g transform="matrix(1,0,0,1,-210.165,-165.438)">
            <g transform="matrix(0.0597026,0,0,0.0659057,247.29,230.349)">
                <rect x="268.107" y="163.914" width="272.935" height="272.935" style="fill:rgb(255,0,227);fill-opacity:0.45;"/>
            </g>
        </g>
        <g transform="matrix(1,0,0,1,-210.165,-165.438)">
            <g transform="matrix(-3.65573e-18,-0.0597026,-0.0659057,4.03556e-18,288.112,318.046)">
                <rect x="268.107" y="163.914" width="272.935" height="272.935" style="fill:rgb(255,0,227);fill-opacity:0.45;"/>
            </g>
        </g>
        <g transform="matrix(1,0,0,1,-210.165,-165.438)">
            <g transform="matrix(0.0597026,0,0,0.0659057,289.48,230.231)">
                <rect x="268.107" y="163.914" width="272.935" height="272.935" style="fill:rgb(255,0,227);fill-opacity:0.45;"/>
            </g>
        </g>
        <g transform="matrix(1,0,0,1,-210.165,-165.438)">
            <g transform="matrix(-3.65573e-18,-0.0597026,-0.0659057,4.03556e-18,334.267,295.162)">
                <rect x="268.107" y="163.914" width="272.935" height="272.935" style="fill:rgb(255,0,227);fill-opacity:0.45;"/>
            </g>
        </g>
        <g transform="matrix(1,0,0,1,-210.165,-165.438)">
            <g transform="matrix(0.0597026,0,0,0.0659057,268.896,230.231)">
                <rect x="268.107" y="163.914" width="272.935" height="272.935" style="fill:rgb(255,0,227);fill-opacity:0.45;"/>
            </g>
        </g>
        <g transform="matrix(1,0,0,1,-210.165,-165.438)">
            <g transform="matrix(-3.65573e-18,-0.0597026,-0.0659057,4.03556e-18,334.267,315.747)">
                <rect x="268.107" y="163.914" width="272.935" height="272.935" style="fill:rgb(255,0,227);fill-opacity:0.45;"/>
            </g>
        </g>
        <g transform="matrix(1,0,0,1,-210.165,-165.438)">
            <g transform="matrix(-3.65573e-18,-0.0597026,-0.0659057,4.03556e-18,313.423,315.789)">
                <rect x="268.107" y="163.914" width="272.935" height="272.935" style="fill:rgb(255,0,227);fill-opacity:0.45;"/>
            </g>
        </g>
        <g transform="matrix(1,0,0,1,-210.165,-165.438)">
            <g transform="matrix(-3.65573e-18,-0.0597026,-0.0659057,4.03556e-18,291.986,355.946)">
                <rect x="268.107" y="163.914" width="272.935" height="272.935" style="fill:rgb(255,158,0);"/>
            </g>
        </g>
        <g transform="matrix(1,0,0,1,-210.165,-165.438)">
            <g transform="matrix(-3.65573e-18,-0.0597026,-0.0659057,4.03556e-18,291.986,335.722)">
                <rect x="268.107" y="163.914" width="272.935" height="272.935" style="fill:rgb(255,158,0);fill-opacity:0.71;"/>
            </g>
        </g>
        <g transform="matrix(1,0,0,1,-210.165,-165.438)">
            <g transform="matrix(0.0597026,0,0,0.0659057,249.547,226.475)">
                <rect x="268.107" y="163.914" width="272.935" height="272.935" style="fill:rgb(255,158,0);fill-opacity:0.6;"/>
            </g>
        </g>
        <g transform="matrix(1,0,0,1,-210.165,-165.438)">
            <g transform="matrix(-3.65573e-18,-0.0597026,-0.0659057,4.03556e-18,291.986,315.789)">
                <rect x="268.107" y="163.914" width="272.935" height="272.935" style="fill:rgb(255,158,0);fill-opacity:0.6;"/>
            </g>
        </g>
        <g transform="matrix(1,0,0,1,-210.165,-165.438)">
            <g transform="matrix(0.0597026,0,0,0.0659057,291.737,226.357)">
                <rect x="268.107" y="163.914" width="272.935" height="272.935" style="fill:rgb(255,158,0);fill-opacity:0.44;"/>
            </g>
        </g>
        <g transform="matrix(1,0,0,1,-210.165,-165.438)">
            <g transform="matrix(-3.65573e-18,-0.0597026,-0.0659057,4.03556e-18,338.142,292.905)">
                <rect x="268.107" y="163.914" width="272.935" height="272.935" style="fill:rgb(255,158,0);fill-opacity:0.44;"/>
            </g>
        </g>
        <g transform="matrix(1,0,0,1,-210.165,-165.438)">
            <g transform="matrix(0.0597026,0,0,0.0659057,271.152,226.357)">
                <rect x="268.107" y="163.914" width="272.935" height="272.935" style="fill:rgb(255,158,0);fill-opacity:0.35;"/>
            </g>
        </g>
        <g transform="matrix(1,0,0,1,-210.165,-165.438)">
            <g transform="matrix(-3.65573e-18,-0.0597026,-0.0659057,4.03556e-18,338.142,313.49)">
                <rect x="268.107" y="163.914" width="272.935" height="272.935" style="fill:rgb(255,158,0);fill-opacity:0.35;"/>
            </g>
        </g>
        <g transform="matrix(1,0,0,1,-210.165,-165.438)">
            <g transform="matrix(-3.65573e-18,-0.0597026,-0.0659057,4.03556e-18,317.297,313.533)">
                <rect x="268.107" y="163.914" width="272.935" height="272.935" style="fill:rgb(255,158,0);fill-opacity:0.35;"/>
            </g>
        </g>
    </g>
</svg>
