<?xml version="1.0" encoding="UTF-8" standalone="no"?>
<!DOCTYPE svg PUBLIC "-//W3C//DTD SVG 1.1//EN" "http://www.w3.org/Graphics/SVG/1.1/DTD/svg11.dtd">
<svg width="100%" height="100%" viewBox="0 0 244 259" version="1.1" xmlns="http://www.w3.org/2000/svg" xmlns:xlink="http://www.w3.org/1999/xlink" xml:space="preserve" xmlns:serif="http://www.serif.com/" style="fill-rule:evenodd;clip-rule:evenodd;stroke-linejoin:round;stroke-miterlimit:2;">
    <g transform="matrix(1,0,0,1,-98.0943,-131.665)">
        <g transform="matrix(1,0,0,1,-290.966,-125.329)">
            <path d="M389.06,310.497L391.876,310.497L391.876,281.697L389.06,281.697L389.06,271.201L406.596,271.201L406.596,275.553C407.663,274.188 409.039,272.972 410.724,271.905C412.409,270.839 414.34,270.305 416.516,270.305C420.868,270.305 424.143,271.927 426.34,275.169C428.537,278.412 429.636,283.02 429.636,288.993C429.636,294.967 428.537,299.575 426.34,302.817C424.143,306.06 420.868,307.681 416.516,307.681C414.34,307.681 412.409,307.148 410.724,306.081C409.039,305.015 407.663,303.799 406.596,302.433L406.596,310.497L411.012,310.497L411.012,320.993L389.06,320.993L389.06,310.497ZM410.308,296.289C411.545,296.289 412.473,295.959 413.092,295.297C413.711,294.636 414.02,293.601 414.02,292.193L414.02,285.793C414.02,284.385 413.711,283.351 413.092,282.689C412.473,282.028 411.545,281.697 410.308,281.697C409.071,281.697 408.143,282.028 407.524,282.689C406.905,283.351 406.596,284.385 406.596,285.793L406.596,292.193C406.596,293.601 406.905,294.636 407.524,295.297C408.143,295.959 409.071,296.289 410.308,296.289Z" style="fill:url(#_Linear1);fill-rule:nonzero;"/>
            <path d="M458.756,270.305C459.609,270.305 460.42,270.391 461.188,270.561C461.956,270.732 462.596,270.945 463.108,271.201L463.108,283.425C461.359,282.7 459.481,282.337 457.476,282.337C454.788,282.337 452.719,283.041 451.268,284.449C449.817,285.857 449.092,287.948 449.092,290.721L449.092,296.289L454.852,296.289L454.852,306.785L431.556,306.785L431.556,296.289L434.372,296.289L434.372,281.697L431.556,281.697L431.556,271.201L449.092,271.201L449.092,275.873C450.287,274.081 451.652,272.705 453.188,271.745C454.724,270.785 456.58,270.305 458.756,270.305Z" style="fill:url(#_Linear2);fill-rule:nonzero;"/>
            <path d="M484.228,307.681C478.169,307.681 473.433,306.092 470.02,302.913C466.607,299.735 464.9,295.095 464.9,288.993C464.9,282.892 466.607,278.252 470.02,275.073C473.433,271.895 478.169,270.305 484.228,270.305C490.372,270.305 495.129,271.916 498.5,275.137C501.871,278.359 503.556,282.977 503.556,288.993C503.556,295.095 501.849,299.735 498.436,302.913C495.023,306.092 490.287,307.681 484.228,307.681ZM484.228,296.289C485.465,296.289 486.393,295.959 487.012,295.297C487.631,294.636 487.94,293.601 487.94,292.193L487.94,285.793C487.94,284.385 487.631,283.351 487.012,282.689C486.393,282.028 485.465,281.697 484.228,281.697C482.991,281.697 482.063,282.028 481.444,282.689C480.825,283.351 480.516,284.385 480.516,285.793L480.516,292.193C480.516,293.601 480.825,294.636 481.444,295.297C482.063,295.959 482.991,296.289 484.228,296.289Z" style="fill:url(#_Linear3);fill-rule:nonzero;"/>
            <path d="M505.348,310.497L508.164,310.497L508.164,281.697L505.348,281.697L505.348,271.201L522.884,271.201L522.884,275.553C523.951,274.188 525.327,272.972 527.012,271.905C528.697,270.839 530.628,270.305 532.804,270.305C537.156,270.305 540.431,271.927 542.628,275.169C544.825,278.412 545.924,283.02 545.924,288.993C545.924,294.967 544.825,299.575 542.628,302.817C540.431,306.06 537.156,307.681 532.804,307.681C530.628,307.681 528.697,307.148 527.012,306.081C525.327,305.015 523.951,303.799 522.884,302.433L522.884,310.497L527.3,310.497L527.3,320.993L505.348,320.993L505.348,310.497ZM526.596,296.289C527.833,296.289 528.761,295.959 529.38,295.297C529.999,294.636 530.308,293.601 530.308,292.193L530.308,285.793C530.308,284.385 529.999,283.351 529.38,282.689C528.761,282.028 527.833,281.697 526.596,281.697C525.359,281.697 524.431,282.028 523.812,282.689C523.193,283.351 522.884,284.385 522.884,285.793L522.884,292.193C522.884,293.601 523.193,294.636 523.812,295.297C524.431,295.959 525.359,296.289 526.596,296.289Z" style="fill:url(#_Linear4);fill-rule:nonzero;"/>
            <path d="M563.268,307.681C557.892,307.681 552.708,306.828 547.716,305.121L547.716,295.649L558.084,295.649L558.084,296.289C558.084,298.337 559.385,299.361 561.988,299.361C564.292,299.361 565.444,298.572 565.444,296.993C565.444,296.14 565.113,295.5 564.452,295.073C563.791,294.647 562.628,294.284 560.964,293.985L557.764,293.409C551.065,292.215 547.716,288.417 547.716,282.017C547.716,278.305 549.124,275.425 551.94,273.377C554.756,271.329 558.553,270.305 563.332,270.305C568.665,270.305 573.167,271.201 576.836,272.993L576.836,281.889L567.108,281.889L567.108,281.249C567.108,280.396 566.82,279.745 566.244,279.297C565.668,278.849 564.825,278.625 563.716,278.625C561.583,278.625 560.516,279.308 560.516,280.673C560.516,281.399 560.815,281.953 561.412,282.337C562.009,282.721 563.097,283.084 564.676,283.425L568.324,284.129C572.121,284.855 574.831,286.199 576.452,288.161C578.073,290.124 578.884,292.641 578.884,295.713C578.884,299.596 577.529,302.561 574.82,304.609C572.111,306.657 568.26,307.681 563.268,307.681Z" style="fill:url(#_Linear5);fill-rule:nonzero;"/>
            <path d="M583.684,267.681L583.684,256.993L596.74,256.993L596.74,267.681L583.684,267.681ZM583.236,321.889C581.487,321.889 579.684,321.74 577.828,321.441C575.972,321.143 574.404,320.823 573.124,320.481L573.124,310.049C575.129,310.348 576.921,310.497 578.5,310.497C581.785,310.497 583.428,308.961 583.428,305.889L583.428,281.697L579.14,281.697L579.14,271.201L598.148,271.201L598.148,304.609C598.148,310.455 596.911,314.796 594.436,317.633C591.961,320.471 588.228,321.889 583.236,321.889Z" style="fill:url(#_Linear6);fill-rule:nonzero;"/>
            <path d="M616.516,307.681C611.14,307.681 605.956,306.828 600.964,305.121L600.964,295.649L611.332,295.649L611.332,296.289C611.332,298.337 612.633,299.361 615.236,299.361C617.54,299.361 618.692,298.572 618.692,296.993C618.692,296.14 618.361,295.5 617.7,295.073C617.039,294.647 615.876,294.284 614.212,293.985L611.012,293.409C604.313,292.215 600.964,288.417 600.964,282.017C600.964,278.305 602.372,275.425 605.188,273.377C608.004,271.329 611.801,270.305 616.58,270.305C621.913,270.305 626.415,271.201 630.084,272.993L630.084,281.889L620.356,281.889L620.356,281.249C620.356,280.396 620.068,279.745 619.492,279.297C618.916,278.849 618.073,278.625 616.964,278.625C614.831,278.625 613.764,279.308 613.764,280.673C613.764,281.399 614.063,281.953 614.66,282.337C615.257,282.721 616.345,283.084 617.924,283.425L621.572,284.129C625.369,284.855 628.079,286.199 629.7,288.161C631.321,290.124 632.132,292.641 632.132,295.713C632.132,299.596 630.777,302.561 628.068,304.609C625.359,306.657 621.508,307.681 616.516,307.681Z" style="fill:url(#_Linear7);fill-rule:nonzero;"/>
        </g>
        <g>
            <text x="98.094px" y="217.42px" style="font-family:'Raleway-Thin', 'Raleway';font-weight:100;font-size:12px;fill:white;">Pr<tspan x="109.086px " y="217.42px ">o</tspan>psjs is a library<tspan x="193.014px 196.146px 199.422px 206.454px 210.042px " y="217.42px 217.42px 217.42px 217.42px 217.42px "> for </tspan>cr<tspan x="223.194px " y="217.42px ">e</tspan>ating games and</text>
            <text x="98.094px" y="230.92px" style="font-family:'Raleway-Thin', 'Raleway';font-weight:100;font-size:12px;fill:white;">animations <tspan x="158.622px " y="230.92px ">w</tspan>ith HTML5 can<tspan x="246.342px 252.426px " y="230.92px 230.92px ">va</tspan>s. It tak<tspan x="294.282px " y="230.92px ">e</tspan>s car<tspan x="326.286px " y="230.92px ">e</tspan></text>
            <text x="98.094px" y="244.42px" style="font-family:'Raleway-Thin', 'Raleway';font-weight:100;font-size:12px;fill:white;">of<tspan x="108.366px " y="244.42px "> </tspan>all<tspan x="123.126px " y="244.42px "> </tspan>the animation logic and pr<tspan x="265.038px 271.842px " y="244.42px 244.42px ">ov</tspan>ides basic</text>
            <text x="98.094px" y="257.92px" style="font-family:'Raleway-Thin', 'Raleway';font-weight:100;font-size:12px;fill:white;">collision de<tspan x="158.454px 161.838px " y="257.92px 257.92px ">te</tspan>ction and r<tspan x="224.958px " y="257.92px ">e</tspan>sponse so that <tspan x="312.978px 319.194px " y="257.92px 257.92px ">yo</tspan>u</text>
            <text x="98.094px" y="271.42px" style="font-family:'Raleway-Thin', 'Raleway';font-weight:100;font-size:12px;fill:white;">can f<tspan x="124.026px " y="271.42px ">o</tspan>cus on making <tspan x="212.514px " y="271.42px ">w</tspan>hat <tspan x="241.398px 247.614px " y="271.42px 271.42px ">yo</tspan>u <tspan x="264.366px 273.738px " y="271.42px 271.42px ">wa</tspan>nt t<tspan x="296.802px " y="271.42px ">o</tspan> mak<tspan x="329.922px " y="271.42px ">e</tspan></text>
            <text x="98.094px" y="296.92px" style="font-family:'Raleway-Thin', 'Raleway';font-weight:100;font-size:12px;fill:white;">This int<tspan x="135.474px " y="296.92px ">e</tspan>ractiv<tspan x="170.742px " y="296.92px ">e</tspan> animation <tspan x="235.662px 245.034px " y="296.92px 296.92px ">wa</tspan>s made <tspan x="294.258px " y="296.92px ">w</tspan>ith</text>
            <text x="98.094px" y="310.42px" style="font-family:'Raleway-Thin', 'Raleway';font-weight:100;font-size:12px;fill:white;">Pr<tspan x="109.086px " y="310.42px ">o</tspan>psjs.</text>
            <text x="98.094px" y="344.92px" style="font-family:'Raleway-Thin', 'Raleway';font-weight:100;font-size:20px;fill:white;">H<tspan x="112.574px " y="344.92px ">o</tspan>ld do<tspan x="169.774px " y="344.92px ">w</tspan>n the le<tspan x="252.294px " y="344.92px ">f</tspan>t mouse</text>
            <text x="98.094px" y="367.42px" style="font-family:'Raleway-Thin', 'Raleway';font-weight:100;font-size:20px;fill:white;">butt<tspan x="133.214px " y="367.42px ">o</tspan>n and mo<tspan x="230.034px 240.074px 251.594px 256.254px 266.614px " y="367.42px 367.42px 367.42px 367.42px 367.42px ">ve yo</tspan>ur</text>
            <text x="98.094px" y="389.92px" style="font-family:'Raleway-Thin', 'Raleway';font-weight:100;font-size:20px;fill:white;">mouse ar<tspan x="182.074px " y="389.92px ">o</tspan>und!</text>
        </g>
    </g>
    <defs>
        <linearGradient id="_Linear1" x1="0" y1="0" x2="1" y2="0" gradientUnits="userSpaceOnUse" gradientTransform="matrix(85.824,0,0,46.848,374.41,361.082)"><stop offset="0" style="stop-color:rgb(158,0,255);stop-opacity:1"/><stop offset="0.48" style="stop-color:rgb(232,121,60);stop-opacity:1"/><stop offset="1" style="stop-color:rgb(255,158,0);stop-opacity:1"/></linearGradient>
        <linearGradient id="_Linear2" x1="0" y1="0" x2="1" y2="0" gradientUnits="userSpaceOnUse" gradientTransform="matrix(85.824,0,0,46.848,374.41,361.082)"><stop offset="0" style="stop-color:rgb(158,0,255);stop-opacity:1"/><stop offset="0.48" style="stop-color:rgb(232,121,60);stop-opacity:1"/><stop offset="1" style="stop-color:rgb(255,158,0);stop-opacity:1"/></linearGradient>
        <linearGradient id="_Linear3" x1="0" y1="0" x2="1" y2="0" gradientUnits="userSpaceOnUse" gradientTransform="matrix(85.824,0,0,46.848,374.41,361.082)"><stop offset="0" style="stop-color:rgb(158,0,255);stop-opacity:1"/><stop offset="0.48" style="stop-color:rgb(232,121,60);stop-opacity:1"/><stop offset="1" style="stop-color:rgb(255,158,0);stop-opacity:1"/></linearGradient>
        <linearGradient id="_Linear4" x1="0" y1="0" x2="1" y2="0" gradientUnits="userSpaceOnUse" gradientTransform="matrix(85.824,0,0,46.848,374.41,361.082)"><stop offset="0" style="stop-color:rgb(158,0,255);stop-opacity:1"/><stop offset="0.48" style="stop-color:rgb(232,121,60);stop-opacity:1"/><stop offset="1" style="stop-color:rgb(255,158,0);stop-opacity:1"/></linearGradient>
        <linearGradient id="_Linear5" x1="0" y1="0" x2="1" y2="0" gradientUnits="userSpaceOnUse" gradientTransform="matrix(85.824,0,0,46.848,374.41,361.082)"><stop offset="0" style="stop-color:rgb(158,0,255);stop-opacity:1"/><stop offset="0.48" style="stop-color:rgb(232,121,60);stop-opacity:1"/><stop offset="1" style="stop-color:rgb(255,158,0);stop-opacity:1"/></linearGradient>
        <linearGradient id="_Linear6" x1="0" y1="0" x2="1" y2="0" gradientUnits="userSpaceOnUse" gradientTransform="matrix(85.824,0,0,46.848,374.41,361.082)"><stop offset="0" style="stop-color:rgb(158,0,255);stop-opacity:1"/><stop offset="0.48" style="stop-color:rgb(232,121,60);stop-opacity:1"/><stop offset="1" style="stop-color:rgb(255,158,0);stop-opacity:1"/></linearGradient>
        <linearGradient id="_Linear7" x1="0" y1="0" x2="1" y2="0" gradientUnits="userSpaceOnUse" gradientTransform="matrix(85.824,0,0,46.848,374.41,361.082)"><stop offset="0" style="stop-color:rgb(158,0,255);stop-opacity:1"/><stop offset="0.48" style="stop-color:rgb(232,121,60);stop-opacity:1"/><stop offset="1" style="stop-color:rgb(255,158,0);stop-opacity:1"/></linearGradient>
    </defs>
</svg>
